<svg id="SvgjsSvg1008" xmlns="http://www.w3.org/2000/svg" version="1.1" xmlns:xlink="http://www.w3.org/1999/xlink" xmlns:svgjs="http://svgjs.com/svgjs" width="98" height="78" viewBox="0 0 98 78"><title>Shape</title><desc>Created with Avocode.</desc><defs id="SvgjsDefs1009"></defs><path id="SvgjsPath1010" d="M764.81 499.15C762.89 497.04999999999995 758.64 493.38 757.17 492.13C757.28 491.4 757.4499999999999 490.15999999999997 757.55 488.89C757.8 485.58 757.4399999999999 484 756.27 483.44C755.36 483 754.35 483.37 753.28 484.56C751.3399999999999 486.7 749.2099999999999 488.69 746.97 490.53000000000003C744.12 491.76000000000005 743.38 495.26000000000005 742.6600000000001 498.63000000000005C742.2800000000001 500.4200000000001 741.8800000000001 502.27000000000004 741.19 503.76000000000005C739.6300000000001 507.1700000000001 737.1600000000001 507.45000000000005 736.75 507.4800000000001C730.98 506.63000000000005 721.13 506.51000000000005 706.74 510.7000000000001C699.71 512.7500000000001 694.37 515.0100000000001 692.49 515.8400000000001C691.17 514.7000000000002 687.62 511.8100000000002 680.75 507.58000000000015C676.75 505.1100000000001 674.04 501.25000000000017 672.92 496.41000000000014C671.8299999999999 491.72000000000014 672.38 486.48000000000013 674.4799999999999 481.65000000000015C674.7299999999999 481.0500000000001 674.4599999999999 480.3600000000001 673.8599999999999 480.09000000000015C673.2699999999999 479.84000000000015 672.5699999999999 480.1100000000001 672.3 480.71000000000015C670 485.9900000000001 669.4 491.75000000000017 670.5999999999999 496.9300000000002C671.8499999999999 502.3100000000002 674.9999999999999 506.7900000000002 679.4899999999999 509.5500000000002C688.1099999999999 514.8500000000001 691.4099999999999 518.0200000000002 691.4399999999999 518.0400000000002C691.66 518.2600000000002 691.9599999999999 518.3700000000002 692.26 518.3700000000002C692.43 518.3700000000002 692.6 518.3400000000003 692.76 518.2600000000002C693 518.1500000000002 717.31 506.8900000000002 736.48 509.7900000000002C736.52 509.7900000000002 736.59 509.8000000000002 736.64 509.8000000000002C736.8199999999999 509.8000000000002 740.97 509.82000000000016 743.3199999999999 504.7100000000002C744.1199999999999 502.9800000000002 744.53 501.0000000000002 744.9399999999999 499.0900000000002C745.5699999999999 496.1300000000002 746.17 493.3200000000002 747.9999999999999 492.6100000000002C748.1099999999999 492.5600000000002 748.2199999999999 492.50000000000017 748.3099999999998 492.4200000000002C750.6899999999998 490.4900000000002 752.9499999999998 488.38000000000017 755.0099999999999 486.1200000000002C755.0699999999998 486.0500000000002 755.1199999999999 485.9900000000002 755.1799999999998 485.94000000000017C755.3399999999998 487.15000000000015 755.1699999999998 489.82000000000016 754.7099999999998 492.3600000000002C754.6299999999998 492.7700000000002 754.7899999999998 493.19000000000017 755.1099999999998 493.4600000000002C755.1699999999997 493.5100000000002 760.8599999999998 498.3200000000002 763.0499999999998 500.7200000000002C763.9599999999998 501.7100000000002 763.9599999999998 502.6700000000002 763.7999999999998 503.2800000000002C763.5799999999998 504.1700000000002 762.8899999999999 504.9600000000002 762.0199999999999 505.2900000000002L761.7899999999998 505.3600000000002C759.6099999999999 506.1600000000002 758.0399999999998 506.76000000000016 755.3299999999998 507.4200000000002C752.0499999999998 508.2200000000002 751.6699999999998 511.76000000000016 751.5399999999998 512.9200000000002C751.5399999999998 512.9400000000002 751.5399999999998 512.9600000000002 751.5399999999998 512.9700000000001C751.5399999999998 512.9900000000001 751.5399999999998 513.0200000000001 751.5399999999998 513.0300000000001C751.5399999999998 521.0300000000001 746.2299999999999 528.69 743.3799999999999 532.8000000000001C742.0699999999999 534.7 741.4899999999999 535.5600000000001 741.3199999999999 536.2700000000001C740.8699999999999 538.1600000000001 742.55 543.94 742.7299999999999 544.58C744.6999999999999 551.32 746.06 551.98 746.4999999999999 552.2C747.7599999999999 552.8100000000001 748.0799999999999 553.32 748.1599999999999 553.6800000000001C747.4899999999999 554.0100000000001 745.5899999999998 554.3000000000001 744.4399999999998 553.83C743.9299999999998 553.63 743.8399999999998 553.5 743.8399999999998 553.5C743.8099999999998 553.46 743.7699999999998 553.24 743.7599999999998 553.1C743.6999999999998 552.69 743.6199999999998 552.12 743.3299999999998 551.4C743.0799999999998 550.79 742.2899999999998 549.5799999999999 740.7799999999999 547.3199999999999C739.3799999999999 545.2099999999999 737.6099999999999 542.5899999999999 736.2399999999999 540.2199999999999C734.1499999999999 536.6399999999999 734.0499999999998 535.54 734.0699999999999 535.29C734.29 532.31 736.1199999999999 525.8499999999999 736.1299999999999 525.79C736.2999999999998 525.16 735.9399999999998 524.52 735.3099999999998 524.3299999999999C734.6799999999998 524.16 734.0299999999999 524.52 733.8499999999998 525.1399999999999C733.7799999999997 525.3599999999999 732.5499999999998 529.7599999999999 731.9699999999998 533.0999999999999C726.2299999999998 531.81 719.8799999999998 533.4099999999999 717.1699999999998 534.2599999999999C716.8099999999998 530.5599999999998 714.2999999999998 525.5999999999999 713.6899999999998 524.4199999999998C713.3899999999999 523.8399999999998 712.6799999999998 523.6199999999999 712.0999999999998 523.9199999999998C711.5099999999998 524.2199999999998 711.2899999999998 524.9199999999998 711.5899999999998 525.4999999999999C711.6099999999998 525.5199999999999 712.6999999999998 527.6199999999999 713.6299999999998 530.0399999999998C715.2499999999998 534.2899999999998 714.8899999999998 535.6799999999998 714.7299999999998 536.0099999999999C714.2399999999998 537.0799999999999 713.2799999999997 538.2899999999998 712.3499999999998 539.4599999999999C710.8199999999998 541.3799999999999 709.2499999999998 543.3599999999999 709.2499999999998 545.3499999999999C709.2499999999998 545.7699999999999 709.2299999999998 546.1899999999999 709.2299999999998 546.5999999999999C709.1799999999998 548.9999999999999 709.1199999999998 551.2599999999999 710.8499999999998 552.1199999999999C711.2899999999998 552.3399999999999 711.9099999999997 552.5199999999999 712.5999999999998 552.7399999999999C713.1099999999998 552.8899999999999 713.9699999999998 553.1399999999999 714.5699999999998 553.3899999999999C714.0799999999998 553.5199999999999 713.3299999999998 553.6299999999999 712.2999999999998 553.6399999999999C712.2899999999998 553.6399999999999 712.2899999999998 553.6399999999999 712.2699999999999 553.6399999999999C710.6799999999998 553.6399999999999 709.7199999999999 553.3799999999999 709.4199999999998 553.2099999999999C708.9899999999999 552.1899999999999 707.7599999999999 551.2599999999999 705.9799999999998 550.0099999999999C705.1499999999997 549.4099999999999 704.1999999999998 548.7499999999999 703.9199999999998 548.3699999999999C703.7599999999999 548.1199999999999 703.5999999999998 547.0899999999999 703.4599999999998 546.2399999999999C703.2399999999998 544.8499999999999 702.9599999999998 543.0699999999999 702.3399999999998 541.1099999999999C702.3399999999998 541.0999999999999 702.3299999999998 541.0799999999999 702.3299999999998 541.06C701.8099999999998 539.39 701.0299999999999 537.5699999999999 699.8399999999998 535.7299999999999C699.4399999999998 535.1199999999999 699.0799999999998 534.5699999999999 698.7799999999999 534.0999999999999C698.0599999999998 532.9999999999999 697.5699999999998 532.2299999999999 697.2499999999999 531.67C697.2199999999999 531.62 697.1999999999999 531.56 697.1699999999998 531.51C697.0299999999999 531.25 696.9199999999998 531.01 696.8399999999998 530.81C696.6499999999997 530.26 696.6699999999998 529.79 696.7499999999998 528.39C696.7599999999998 528.23 696.7599999999998 528.08 696.7799999999997 527.9C697.0799999999997 527.23 696.8599999999998 526.13 695.3099999999997 523.04C695.0299999999997 522.4599999999999 694.3199999999997 522.23 693.7399999999997 522.51C693.1499999999996 522.79 692.9199999999996 523.5 693.1999999999997 524.08C694.1299999999997 525.96 694.4199999999997 526.7900000000001 694.4899999999997 527.12C694.4599999999997 527.21 694.4499999999997 527.32 694.4299999999997 527.43C694.4199999999997 527.7299999999999 694.3999999999997 528 694.3799999999998 528.25C694.2699999999998 530.21 694.2899999999997 531.04 694.9199999999997 532.3C694.4599999999997 533.9 693.5799999999997 535.3199999999999 692.3699999999998 536.4699999999999C691.3399999999998 537.3899999999999 690.2199999999998 538.0199999999999 689.2299999999998 538.5699999999999C687.8299999999998 539.3599999999999 686.6099999999998 540.03 686.2999999999998 541.3C686.0599999999998 542.27 686.0799999999998 545.06 686.1999999999998 547.2299999999999C686.4899999999998 552.1499999999999 687.1299999999998 553.0999999999999 687.3499999999998 553.4099999999999C687.4299999999998 553.5199999999999 687.5099999999998 553.6299999999999 687.5799999999998 553.7399999999999C688.5499999999998 555.18 689.1199999999998 555.6999999999999 691.5899999999998 555.9799999999999C692.2099999999998 556.0399999999998 692.7799999999999 556.0799999999999 693.2599999999998 556.0799999999999C695.4099999999997 556.0799999999999 696.4199999999997 555.4999999999999 696.8899999999998 554.9499999999999C697.3499999999998 554.43 697.4999999999998 553.7399999999999 697.3199999999997 553.03C697.0299999999997 551.92 695.8999999999997 551.37 694.8099999999997 550.8199999999999C693.4699999999997 550.15 692.8399999999997 549.7499999999999 692.9199999999997 549.2399999999999C693.1899999999997 547.4599999999999 697.0299999999997 544.4099999999999 698.9499999999997 543.7599999999999C699.5999999999997 543.5399999999998 699.9499999999997 543.4599999999999 700.2099999999997 543.3999999999999C700.3299999999997 543.3699999999999 700.4199999999997 543.3599999999999 700.5099999999996 543.3199999999998C700.8099999999996 544.5299999999999 700.9899999999997 545.6499999999999 701.1299999999997 546.5699999999998C701.3699999999997 548.0899999999998 701.5199999999996 549.0999999999998 702.0299999999996 549.7499999999998C702.5299999999996 550.4099999999997 703.4899999999997 551.0999999999998 704.5999999999997 551.8899999999998C705.4499999999997 552.4999999999998 707.0399999999997 553.6099999999998 707.2299999999997 554.0799999999998C707.5899999999997 555.1999999999998 709.0599999999997 555.8299999999998 711.5499999999997 555.9399999999998C711.7199999999997 555.9499999999998 711.9699999999997 555.9499999999998 712.2699999999998 555.9499999999998C713.8199999999997 555.9499999999998 716.5899999999998 555.7299999999998 717.2699999999998 554.1799999999998C717.4899999999998 553.6799999999998 717.4899999999998 553.1299999999999 717.2499999999998 552.6599999999999C716.6999999999998 551.4599999999998 714.9499999999998 550.9499999999998 713.2499999999998 550.4499999999998C712.6999999999998 550.2899999999998 712.1299999999998 550.1199999999998 711.8599999999998 549.9899999999998C711.4799999999998 549.7999999999997 711.5299999999997 547.6699999999997 711.5499999999998 546.6299999999998C711.5599999999998 546.2099999999998 711.5599999999998 545.7899999999997 711.5599999999998 545.3299999999998C711.5599999999998 544.1599999999999 712.8899999999999 542.4899999999998 714.1599999999999 540.8899999999998C715.1899999999998 539.6199999999998 716.2399999999999 538.2899999999997 716.8399999999998 536.9599999999998C716.8699999999998 536.8899999999998 716.8899999999998 536.8299999999998 716.9199999999998 536.7699999999998C718.3999999999999 536.2499999999998 725.6199999999999 533.9599999999998 731.6599999999999 535.4199999999997C731.6899999999998 536.3099999999997 732.1099999999999 537.8699999999998 734.1499999999999 541.3599999999998C735.5499999999998 543.7799999999997 737.3299999999998 546.4499999999998 738.7599999999999 548.5799999999998C739.8199999999998 550.1599999999999 740.9199999999998 551.8099999999998 741.0999999999999 552.2299999999998C741.2799999999999 552.6899999999998 741.3299999999999 553.0299999999997 741.3799999999999 553.3599999999998C741.5199999999999 554.3999999999997 741.7699999999999 555.2399999999998 743.4899999999999 555.9499999999998C744.18 556.2299999999998 745.0399999999998 556.3599999999998 745.8999999999999 556.3599999999998C747.3199999999998 556.3599999999998 748.7699999999999 556.0099999999998 749.5599999999998 555.4799999999998C750.3799999999999 554.9299999999998 750.4999999999999 554.2699999999998 750.4999999999999 553.9099999999997C750.4999999999999 552.2499999999998 749.5599999999998 551.0299999999997 747.5399999999998 550.0199999999998C747.1299999999999 549.6899999999997 746.0799999999998 547.6799999999997 744.8899999999999 543.6099999999998C743.8399999999999 539.9699999999998 743.4599999999999 537.2699999999998 743.5899999999999 536.7199999999998C743.6999999999999 536.3599999999998 744.55 535.1399999999998 745.29 534.0499999999998C748.28 529.7399999999999 753.8299999999999 521.7399999999999 753.86 513.0299999999999C754.16 510.3799999999999 755.03 509.8199999999999 755.85 509.60999999999984C758.6800000000001 508.90999999999985 760.32 508.30999999999983 762.58 507.47999999999985L762.8100000000001 507.39999999999986C764.4200000000001 506.8099999999999 765.6600000000001 505.40999999999985 766.07 503.7499999999999C766.5300000000001 502.1999999999999 766.0600000000001 500.51999999999987 764.8100000000001 499.14999999999986ZM699.88 541.17C699.84 541.1899999999999 699.77 541.2099999999999 699.71 541.2199999999999C699.4300000000001 541.2799999999999 698.99 541.3899999999999 698.24 541.6499999999999C696.15 542.3499999999999 691.09 545.8499999999999 690.62 548.9999999999999C690.29 551.2799999999999 692.4 552.3299999999999 693.8 553.0299999999999C694.13 553.2099999999998 694.5999999999999 553.4299999999998 694.89 553.6099999999999C694.43 553.7499999999999 693.4399999999999 553.8999999999999 691.91 553.7199999999999C690.29 553.54 690.25 553.4999999999999 689.5799999999999 552.4999999999999C689.4999999999999 552.3899999999999 689.42 552.2799999999999 689.3399999999999 552.1499999999999C689.1399999999999 551.8399999999999 688.7699999999999 550.2299999999999 688.5999999999999 547.0999999999999C688.4399999999999 544.4699999999999 688.5199999999999 542.3699999999999 688.6299999999999 541.9399999999999C688.6899999999998 541.66 689.7799999999999 541.06 690.4299999999998 540.6999999999999C691.4799999999998 540.1099999999999 692.7899999999998 539.39 694.0099999999999 538.27C694.0099999999999 538.27 694.0099999999999 538.27 694.0199999999999 538.26C695.0599999999998 537.28 695.8999999999999 536.16 696.5099999999999 534.9C696.6199999999999 535.0699999999999 696.7299999999999 535.25 696.8599999999999 535.43C697.1699999999998 535.9 697.5199999999999 536.4499999999999 697.9099999999999 537.0699999999999C698.7799999999999 538.4499999999999 699.4099999999999 539.8399999999999 699.8799999999999 541.17C699.8799999999999 541.16 699.8799999999999 541.17 699.8799999999999 541.17Z " fill="#010101" fill-opacity="1" transform="matrix(1,0,0,1,-669,-479)"></path></svg>