<svg id="SvgjsSvg1043" xmlns="http://www.w3.org/2000/svg" version="1.1" xmlns:xlink="http://www.w3.org/1999/xlink" xmlns:svgjs="http://svgjs.com/svgjs" width="80" height="56" viewBox="0 0 80 56"><title>Fill 1</title><desc>Created with Avocode.</desc><defs id="SvgjsDefs1044"></defs><path id="SvgjsPath1045" d="M1040.64 772.02C1040.8200000000002 771.52 1040.89 771.09 1040.88 770.73C1040.8700000000001 770.59 1040.8300000000002 770.45 1040.7600000000002 770.33C1040.7500000000002 769.96 1040.7100000000003 769.5500000000001 1040.6400000000003 769.13C1040.2600000000002 766.9399999999999 1039.0100000000002 765.41 1037.0300000000004 764.71C1035.3400000000004 764.11 1034.7300000000005 763.47 1033.5100000000004 762.19C1032.0100000000004 760.61 1029.7400000000005 758.21 1023.8100000000004 754.24C1020.9400000000004 752.3100000000001 1018.1100000000004 751.4 1015.5500000000004 751.0600000000001C1015.7200000000004 750.1800000000001 1015.9700000000004 748.6700000000001 1016.0300000000004 747.0200000000001C1016.1500000000004 743.4100000000001 1015.2900000000004 740.9800000000001 1013.4900000000005 739.8100000000001C1009.2800000000004 737.09 1003.4800000000005 742.08 1003.2300000000005 742.2900000000001C1003.2100000000005 742.3100000000001 1003.1800000000005 742.34 1003.1500000000004 742.3700000000001C1003.1300000000005 742.3900000000001 1000.7200000000005 745.1400000000001 995.2700000000004 749.4000000000001C989.6400000000004 753.7900000000001 987.4400000000004 756.9100000000001 990.1600000000004 762.71C990.3000000000004 763 990.5900000000004 763.1800000000001 990.8900000000004 763.1800000000001C991.0000000000005 763.1800000000001 991.1200000000005 763.1500000000001 991.2300000000005 763.1C991.6400000000004 762.91 991.8100000000005 762.4200000000001 991.6200000000005 762.02C989.3800000000005 757.22 990.8900000000004 754.88 996.2700000000004 750.68C1001.5100000000004 746.5799999999999 1003.9800000000005 743.88 1004.3300000000004 743.4799999999999C1004.5500000000004 743.2899999999998 1005.7800000000004 742.2899999999998 1007.3500000000004 741.5199999999999C1009.5400000000004 740.4499999999998 1011.3100000000004 740.3399999999999 1012.6100000000004 741.1799999999998C1015.0900000000004 742.7799999999999 1014.4900000000004 748.3199999999998 1013.9300000000004 750.9299999999998C1011.9700000000004 750.8499999999998 1010.2000000000004 751.0799999999998 1008.7400000000004 751.4199999999998C1004.7700000000003 752.3499999999998 1002.1900000000004 754.1799999999998 1002.0800000000004 754.2499999999999C1001.7200000000004 754.5099999999999 1001.6300000000003 755.0199999999999 1001.8900000000003 755.3799999999999C1002.1500000000003 755.7499999999999 1002.6500000000003 755.8399999999999 1003.0200000000003 755.5799999999999C1003.0400000000003 755.56 1005.4900000000004 753.8399999999999 1009.1700000000003 752.9899999999999C1014.0400000000003 751.8699999999999 1018.6700000000003 752.7499999999999 1022.9200000000003 755.5899999999999C1028.7000000000003 759.4599999999999 1030.8900000000003 761.78 1032.3400000000004 763.31C1033.6000000000004 764.64 1034.4300000000003 765.52 1036.4900000000005 766.25C1039.4900000000005 767.31 1039.2100000000005 770.68 1039.0800000000004 771.58C1038.7500000000005 772.4000000000001 1037.9400000000003 773.71 1036.1300000000003 775.2700000000001C1033.8600000000004 777.2300000000001 1029.3600000000004 780.0900000000001 1020.8200000000004 782.6100000000001C1009.8000000000004 785.8500000000001 1005.4600000000004 783.2600000000001 1003.3700000000003 782.0100000000001C1002.8500000000004 781.7000000000002 1002.4500000000004 781.4600000000002 1002.0500000000003 781.3600000000001C1001.4200000000003 781.2000000000002 1000.8700000000003 781.4000000000001 1000.4800000000002 781.9400000000002C999.2000000000003 783.7400000000001 997.4400000000003 788.1900000000002 997.1700000000003 788.8800000000002C996.8200000000003 789.4200000000002 995.3600000000004 791.8400000000003 996.3100000000003 793.5200000000002C996.8200000000003 794.4200000000002 997.8600000000002 794.8800000000002 999.3900000000003 794.8800000000002C999.5600000000003 794.8800000000002 999.7400000000004 794.8700000000002 999.9300000000003 794.8600000000002C1005.7300000000002 794.5000000000002 1009.4000000000003 788.6300000000002 1009.5600000000003 788.3800000000002C1009.7900000000003 788.0000000000002 1009.6700000000003 787.5000000000002 1009.2900000000003 787.2700000000002C1008.9100000000003 787.0300000000002 1008.4200000000003 787.1500000000002 1008.1800000000003 787.5300000000002C1008.1500000000003 787.5800000000002 1004.8100000000003 792.9300000000002 999.8300000000003 793.2400000000002C998.7000000000003 793.3100000000003 997.9500000000003 793.1200000000002 997.7200000000003 792.7200000000003C997.3500000000003 792.0700000000003 998.0000000000002 790.5400000000003 998.5600000000003 789.7100000000003C998.5900000000003 789.6600000000003 998.6200000000002 789.6100000000002 998.6400000000003 789.5500000000003C998.6600000000003 789.5000000000003 1000.4900000000004 784.7700000000003 1001.7400000000004 782.9600000000003C1001.9300000000004 783.0400000000003 1002.2700000000003 783.2400000000002 1002.5400000000003 783.4000000000003C1004.0300000000003 784.2900000000003 1006.5600000000003 785.8100000000003 1011.3700000000003 785.8100000000003C1013.9500000000004 785.8100000000003 1017.1900000000004 785.3700000000002 1021.2800000000003 784.1700000000003C1028.3500000000004 782.0800000000003 1033.7000000000003 779.5100000000003 1037.1900000000003 776.5100000000003C1038.9300000000003 775.0000000000003 1039.9500000000003 773.6000000000004 1040.4600000000003 772.4600000000004C1040.5400000000002 772.3700000000003 1040.5900000000004 772.2500000000003 1040.6200000000003 772.1300000000003C1040.6200000000003 772.1200000000003 1040.6300000000003 772.0800000000004 1040.6400000000003 772.0200000000003 " fill="#010101" fill-opacity="1" transform="matrix(1,0,0,1,-961,-739)"></path><path id="SvgjsPath1046" d="M973.52 779.58C972.98 779.61 972.29 779.5400000000001 972.1 779.0500000000001C971.82 778.36 972.38 776.8900000000001 973.76 775.7C974.55 775.01 975.4399999999999 774.1 975.3 773.0600000000001C975.14 771.9300000000001 973.9399999999999 771.37 972.42 770.6700000000001L972.0799999999999 770.5100000000001C966.8199999999999 768.0400000000001 963.28 765.4800000000001 962.68 763.7200000000001C963.39 763.5400000000002 966.0999999999999 763.3800000000001 976.31 765.5000000000001C981.56 766.6000000000001 986.64 767.8500000000001 988.2299999999999 768.2400000000001C988.5199999999999 769.7500000000001 989.1399999999999 771.2500000000001 990.0999999999999 772.7300000000001C988.1299999999999 773.0800000000002 985.1399999999999 774.4900000000001 981.04 776.4700000000001C978.0899999999999 777.9000000000001 974.74 779.5200000000001 973.52 779.5800000000002ZM999.43 779.99C999.65 779.6 999.51 779.1 999.12 778.88C999.04 778.84 990.91 774.17 989.79 767.81C989.78 767.75 989.77 767.6999999999999 989.75 767.64C989.78 767.26 989.53 766.9 989.14 766.8C989.08 766.78 982.8199999999999 765.1899999999999 976.4 763.8599999999999C972.61 763.0799999999999 969.5 762.5399999999998 967.15 762.2499999999999C964.68 761.9499999999999 962.28 761.7799999999999 961.4 762.5899999999999C961.09 762.8799999999999 960.9499999999999 763.28 961.02 763.6999999999999C961.27 765.2499999999999 962.77 766.91 965.59 768.78C967.73 770.1999999999999 970.15 771.39 971.4 771.98L971.74 772.14C972.49 772.49 973.62 773.01 973.7 773.28C973.7 773.29 973.7 773.6 972.7 774.47C970.88 776.0500000000001 970.01 778.1800000000001 970.6 779.65C971.12 780.97 972.45 781.2099999999999 973.34 781.2099999999999C973.4300000000001 781.2099999999999 973.52 781.2099999999999 973.6 781.1999999999999C975.14 781.1299999999999 978.2 779.65 981.75 777.93C983.89 776.89 986.11 775.8199999999999 987.94 775.0999999999999C990.4200000000001 774.1199999999999 991.1 774.2399999999999 991.23 774.29C991.96 775.18 992.8000000000001 776.06 993.77 776.93C996.09 779.02 998.24 780.25 998.3299999999999 780.3C998.4499999999999 780.37 998.5899999999999 780.4 998.7199999999999 780.4C998.9999999999999 780.4 999.2799999999999 780.25 999.43 779.99Z " fill="#010101" fill-opacity="1" transform="matrix(1,0,0,1,-961,-739)"></path><path id="SvgjsPath1047" d="M1033.56 769.29C1033.56 768.03 1032.54 767 1031.28 767C1030.02 767 1029 768.03 1029 769.29C1029 770.56 1030.02 771.5899999999999 1031.28 771.5899999999999C1032.54 771.5899999999999 1033.56 770.56 1033.56 769.29 " fill="#010101" fill-opacity="1" transform="matrix(1,0,0,1,-961,-739)"></path></svg>