<svg id="SvgjsSvg1033" xmlns="http://www.w3.org/2000/svg" version="1.1" xmlns:xlink="http://www.w3.org/1999/xlink" xmlns:svgjs="http://svgjs.com/svgjs" width="89" height="46" viewBox="0 0 89 46"><title>Fill 1</title><desc>Created with Avocode.</desc><defs id="SvgjsDefs1034"></defs><path id="SvgjsPath1035" d="M417.91 770.04C417.92 770.04 417.94 770.04 417.95000000000005 770.04C418.46000000000004 770.04 418.88000000000005 769.64 418.90000000000003 769.13C419.14000000000004 763.73 421.04 759.45 424.54 756.39C431.85 750 443.87 750.9499999999999 443.99 750.96C444.51 751 444.98 750.62 445.02 750.1C445.07 749.57 444.68 749.11 444.15999999999997 749.07C444.02 749.0600000000001 440.89 748.8000000000001 436.76 749.38C432.90999999999997 749.92 427.46 751.32 423.28999999999996 754.96C419.37999999999994 758.37 417.26 763.11 416.99999999999994 769.0500000000001C416.97999999999996 769.57 417.37999999999994 770.0100000000001 417.90999999999997 770.0400000000001 " fill="#050606" fill-opacity="1" transform="matrix(1,0,0,1,-390,-744)"></path><path id="SvgjsPath1036" d="M461.71 747.82C461.83 747.49 462.37 747.19 463.25 746.95C463.69 746.83 463.84 746.95 463.89 747C464.16999999999996 747.23 464.52 748.2 464.46 749.59C464.21 749.72 464 749.85 463.81 749.98C463.43 750.22 463.15 750.39 462.76 750.48C461.69 748.86 461.59 748.14 461.71 747.82ZM466.58 748.8C466.51 748.8199999999999 466.43 748.8399999999999 466.35999999999996 748.8599999999999C466.30999999999995 747.7899999999998 466.05999999999995 746.3399999999999 465.11999999999995 745.55C464.67999999999995 745.18 463.90999999999997 744.8 462.74999999999994 745.12C461.75999999999993 745.39 460.38999999999993 745.89 459.91999999999996 747.16C459.59999999999997 748.04 459.77 749.06 460.49999999999994 750.41C459.62999999999994 750.27 458.7699999999999 750.04 457.93999999999994 749.7199999999999C457.29999999999995 749.05 456.40999999999997 748.2199999999999 455.12999999999994 747.06C453.35999999999996 745.4499999999999 451.3299999999999 745.13 449.67999999999995 746.1999999999999C447.50999999999993 747.6099999999999 446.75999999999993 750.8699999999999 447.86999999999995 754.14C448.8999999999999 757.1999999999999 450.97999999999996 758.49 452.53999999999996 759.04C453.65 759.43 454.65999999999997 759.5 455.22999999999996 759.5C455.50999999999993 759.5 455.68999999999994 759.48 455.71 759.48C456.22999999999996 759.4200000000001 456.60999999999996 758.96 456.56 758.44C456.5 757.9200000000001 456.04 757.5400000000001 455.52 757.59C455.34 757.61 451.16999999999996 757.95 449.66999999999996 753.5300000000001C448.98999999999995 751.5200000000001 449.12999999999994 748.82 450.72999999999996 747.7900000000001C451.61999999999995 747.21 452.72999999999996 747.45 453.84999999999997 748.46C454.96999999999997 749.49 455.74999999999994 750.21 456.30999999999995 750.77C456.3999999999999 751.01 456.5799999999999 751.21 456.8299999999999 751.3199999999999C457.6099999999999 752.2099999999999 457.68999999999994 752.66 457.8399999999999 753.64C457.9299999999999 754.16 458.4199999999999 754.51 458.93999999999994 754.43C459.4599999999999 754.3499999999999 459.80999999999995 753.8599999999999 459.72999999999996 753.3399999999999C459.65 752.8899999999999 459.56999999999994 752.4999999999999 459.46999999999997 752.1499999999999C460.19 752.2999999999998 460.91999999999996 752.3999999999999 461.66999999999996 752.4399999999998C463.34999999999997 752.5199999999999 464.09999999999997 752.0399999999998 464.83 751.5799999999998C465.34999999999997 751.2499999999998 465.89 750.8999999999999 467 750.6499999999999C471.78 749.5799999999998 475.63 749.7499999999999 476.36 751.0699999999998C477.43 752.9899999999998 477.40000000000003 759.2399999999998 471 763.3199999999998C470.88 763.4099999999999 470.77 763.5199999999999 470.69 763.6499999999999C470.67 763.6899999999998 467.92 768.3599999999999 462.2 772.1999999999998C456.65999999999997 775.9099999999999 449.56 777.7499999999998 439.86 777.9799999999998C434.04 778.1199999999998 429.31 777.9199999999998 425.79 777.3799999999998C421.61 776.7399999999998 419.16 775.5999999999998 418.89000000000004 774.1799999999997C418.79 773.6699999999997 418.29 773.3299999999997 417.78000000000003 773.4199999999997C417.26000000000005 773.5199999999998 416.92 774.0199999999998 417.02000000000004 774.5299999999997C417.46000000000004 776.8999999999997 420.24000000000007 778.4499999999997 425.50000000000006 779.2499999999998C428.40000000000003 779.6999999999998 432.07000000000005 779.9199999999997 436.45000000000005 779.9199999999997C437.55000000000007 779.9199999999997 438.71000000000004 779.9099999999997 439.90000000000003 779.8799999999998C449.99 779.6399999999998 457.41 777.6999999999998 463.26000000000005 773.7699999999998C468.7300000000001 770.1099999999998 471.61000000000007 765.7899999999997 472.22 764.7999999999997C476.07000000000005 762.2699999999998 477.66 759.1499999999997 478.31 756.9599999999997C479.05 754.4599999999997 478.94 751.7899999999997 478.03000000000003 750.1499999999997C476.28000000000003 746.9999999999998 469.44000000000005 748.1599999999997 466.58000000000004 748.7999999999997Z " fill="#050606" fill-opacity="1" transform="matrix(1,0,0,1,-390,-744)"></path><path id="SvgjsPath1037" d="M467.57 754.28C467.57 753.5699999999999 467 753 466.29 753C465.58000000000004 753 465 753.57 465 754.28C465 754.99 465.58 755.56 466.29 755.56C467 755.56 467.57 754.9899999999999 467.57 754.28 " fill="#050606" fill-opacity="1" transform="matrix(1,0,0,1,-390,-744)"></path><path id="SvgjsPath1038" d="M463.93 779.31C461.32 779.41 460.90000000000003 778.8699999999999 460.90000000000003 778.8699999999999C460.90000000000003 778.8699999999999 460.90000000000003 778.8899999999999 460.91 778.8999999999999C460.90000000000003 778.9199999999998 460.89000000000004 778.9299999999998 460.89000000000004 778.9299999999998L459.23 777.9999999999999C458.99 778.4299999999998 458.85 779.1699999999998 459.27000000000004 779.8599999999999C459.84000000000003 780.7799999999999 461.14000000000004 781.2199999999999 463.33000000000004 781.2199999999999C463.54 781.2199999999999 463.77000000000004 781.2199999999999 464.00000000000006 781.2099999999999C464.53000000000003 781.1899999999999 464.94000000000005 780.7499999999999 464.9200000000001 780.2299999999999C464.9000000000001 779.6999999999999 464.4600000000001 779.2899999999998 463.93000000000006 779.31 " fill="#050606" fill-opacity="1" transform="matrix(1,0,0,1,-390,-744)"></path><path id="SvgjsPath1039" d="M414.01 775.01C413.53 775.09 402.18 776.84 398.36 778.12C395.92 778.94 393.89 779.74 393.67 781.3C393.48 782.64 394.79 783.6899999999999 395.78000000000003 784.37C396.14000000000004 784.61 396.20000000000005 784.76 396.20000000000005 784.79C396.11000000000007 785.4 393.90000000000003 786.64 391.6700000000001 787.3399999999999C391.1600000000001 787.4999999999999 390.8900000000001 788.03 391.0400000000001 788.53C391.1700000000001 788.9399999999999 391.55000000000007 789.1899999999999 391.9500000000001 789.1899999999999C392.0500000000001 789.1899999999999 392.1400000000001 789.18 392.2400000000001 789.15C392.29000000000013 789.13 393.5500000000001 788.74 394.8600000000001 788.11C396.8700000000001 787.14 397.92000000000013 786.15 398.08000000000015 785.07C398.17000000000013 784.47 398.03000000000014 783.6 396.8600000000001 782.8000000000001C395.6200000000001 781.96 395.5600000000001 781.5600000000001 395.5600000000001 781.5600000000001V781.5600000000001C395.5600000000001 781.5600000000001 395.6300000000001 781.33 396.3600000000001 780.95C396.92000000000013 780.6500000000001 397.73000000000013 780.33 398.96000000000015 779.9200000000001C402.64000000000016 778.69 414.19000000000017 776.9000000000001 414.3000000000001 776.8900000000001C414.8200000000001 776.8100000000001 415.1800000000001 776.32 415.10000000000014 775.8000000000001C415.02000000000015 775.2900000000001 414.53000000000014 774.9300000000001 414.01000000000016 775.0100000000001 " fill="#050606" fill-opacity="1" transform="matrix(1,0,0,1,-390,-744)"></path></svg>