<svg id="SvgjsSvg1040" xmlns="http://www.w3.org/2000/svg" version="1.1" xmlns:xlink="http://www.w3.org/1999/xlink" xmlns:svgjs="http://svgjs.com/svgjs" width="145" height="120" viewBox="0 0 145 120"><title>Shape</title><desc>Created with Avocode.</desc><defs id="SvgjsDefs1041"></defs><path id="SvgjsPath1042" d="M786.65 719.89L788.29 711.74C788.4 711.1800000000001 788.15 710.63 787.67 710.35C787.18 710.07 786.5799999999999 710.14 786.16 710.51L783.73 712.6899999999999V708.31C783.73 707.7399999999999 783.35 707.2299999999999 782.8100000000001 707.06C782.2600000000001 706.89 781.6700000000001 707.0899999999999 781.36 707.5799999999999L777.13 713.8699999999999C770.92 713.6199999999999 763.38 723.5499999999998 757.26 731.5999999999999C755.52 733.8799999999999 754.01 735.8599999999999 752.85 737.17C751.99 738.16 751.22 739.1999999999999 750.48 740.2199999999999C746.65 745.4699999999999 742.69 750.91 722.39 749.7799999999999C721.68 749.7499999999999 721.05 750.2799999999999 721.02 751.0099999999999C720.99 751.7199999999999 721.52 752.3399999999999 722.25 752.3799999999999C724.09 752.4799999999999 725.81 752.5299999999999 727.42 752.5299999999999C744.74 752.5299999999999 748.88 746.8399999999998 752.5799999999999 741.7599999999999C753.3199999999999 740.7399999999999 754.0099999999999 739.7899999999998 754.8 738.9099999999999C756.03 737.5199999999999 757.55 735.5099999999999 759.3199999999999 733.1699999999998C764.3299999999999 726.5799999999998 772.7199999999999 715.5299999999999 777.4699999999999 716.5299999999999C777.9899999999999 716.6399999999999 778.5299999999999 716.4299999999998 778.8299999999999 715.9999999999999L781.1299999999999 712.5799999999999V717.92C781.1299999999999 718.63 781.7199999999999 719.2199999999999 782.4299999999998 719.2199999999999C783.1399999999999 719.2199999999999 783.7299999999998 718.6299999999999 783.7299999999998 717.92V716.17C783.7699999999998 716.15 783.7999999999998 716.12 783.8199999999998 716.0999999999999L784.9599999999998 715.0799999999999L784.0299999999999 719.7199999999999C783.9899999999999 719.93 783.9899999999999 720.1499999999999 784.0599999999998 720.3599999999999C785.6599999999999 725.5399999999998 789.7099999999998 739.8399999999999 789.2299999999998 743.6699999999998C788.9199999999998 746.0899999999998 787.0999999999998 747.4599999999998 785.6199999999998 747.8899999999999C784.5499999999997 748.2099999999999 783.6999999999998 748.0499999999998 783.4199999999997 747.6999999999998C782.5199999999998 746.6299999999998 782.1499999999997 744.9099999999999 781.8899999999998 743.6499999999999C781.6899999999997 742.6799999999998 781.5699999999997 742.0599999999998 781.1799999999997 741.5899999999999C780.9599999999997 741.3299999999999 780.6299999999998 741.0699999999999 779.6799999999997 740.3799999999999C778.7699999999998 739.7199999999999 777.5399999999997 738.8199999999999 776.5399999999997 737.9199999999998C775.0299999999997 736.5699999999998 774.9399999999997 736.0499999999998 774.9399999999997 736.0099999999999C774.7899999999997 734.7199999999999 773.7299999999997 734.6599999999999 773.6099999999997 734.6599999999999C773.6099999999997 734.6599999999999 773.5899999999997 734.6599999999999 773.5699999999997 734.6599999999999C772.4099999999997 734.6599999999999 772.2199999999997 735.7899999999998 772.0599999999997 736.6899999999998C771.9599999999997 737.2999999999998 771.8399999999997 738.1799999999998 771.6799999999997 739.1799999999998C771.0799999999997 743.2899999999998 770.0699999999997 750.1599999999999 768.6799999999997 752.9699999999998C766.6499999999997 757.0699999999998 769.3399999999997 760.4999999999998 770.9399999999997 762.5599999999998C771.3699999999997 763.1099999999998 771.9399999999997 763.8599999999998 772.0099999999998 764.1399999999999C772.0499999999997 764.2899999999998 772.0799999999998 764.3799999999999 772.1699999999997 764.4999999999999C772.6899999999997 765.4899999999999 772.8399999999997 768.4999999999999 769.6699999999997 773.0399999999998C768.4699999999997 774.7299999999999 768.1599999999997 776.3599999999999 768.7499999999998 777.8299999999998C770.0699999999998 781.1899999999998 775.6199999999998 782.3899999999998 778.9099999999997 783.1199999999998C779.4999999999998 783.2399999999998 780.2499999999998 783.4099999999997 780.4399999999997 783.4799999999998C780.5599999999997 783.5499999999998 780.7199999999997 783.6199999999998 780.9099999999997 783.6899999999998C783.9599999999997 785.0699999999998 785.7799999999997 786.5399999999998 784.8399999999997 789.1799999999998C783.0699999999997 794.1099999999998 777.4199999999997 802.9399999999998 775.3799999999997 803.9299999999998C774.7699999999996 804.2199999999998 774.3999999999996 804.3299999999998 774.1999999999997 804.3599999999998C774.0099999999996 804.0999999999998 773.7299999999997 803.8999999999997 773.3999999999997 803.8299999999998C772.8599999999998 803.7099999999998 772.3099999999997 803.9499999999998 772.0299999999997 804.4199999999998C771.2799999999997 805.6099999999999 770.0999999999998 807.0099999999999 769.3799999999998 807.4799999999998C769.2599999999998 806.7399999999998 769.3399999999998 805.1399999999998 769.8299999999998 803.4999999999998C769.9499999999998 803.0799999999998 770.1599999999999 802.8199999999998 770.4999999999998 802.6699999999997C770.9499999999998 802.4599999999997 771.4599999999998 802.4899999999998 771.6699999999997 802.5599999999997C771.9399999999997 802.7699999999998 772.3899999999998 802.9799999999997 773.0699999999997 802.9099999999997C774.4699999999997 802.7699999999998 776.6899999999997 801.5599999999997 777.9899999999997 799.7599999999998C778.7599999999996 798.7199999999998 779.8799999999997 796.5199999999998 780.5799999999997 794.3499999999998C781.4599999999997 791.6399999999998 781.4099999999997 789.6799999999998 780.4599999999997 788.5499999999998L780.2099999999997 787.5499999999998C780.0899999999997 787.0299999999999 779.6599999999997 786.6499999999999 779.1199999999997 786.5799999999998C779.0899999999997 786.5799999999998 775.9099999999996 786.1299999999998 772.5699999999997 785.4699999999998C766.4599999999997 784.2799999999997 765.4099999999997 783.4399999999998 765.2799999999997 783.3199999999998C764.7599999999998 782.5999999999998 763.9799999999998 782.2799999999999 763.1999999999997 782.4899999999998C762.5099999999996 782.6799999999998 761.5699999999997 783.3099999999998 760.5999999999997 786.3199999999998C760.0999999999997 787.8999999999999 759.6999999999997 789.7499999999998 759.6299999999997 790.9599999999998C759.5999999999997 791.4799999999998 759.4799999999997 792.6199999999998 759.2999999999996 794.0599999999998C758.3999999999996 802.0099999999999 757.6199999999997 809.9899999999998 758.7299999999996 812.7399999999998C760.1699999999996 816.3099999999998 761.9699999999996 818.5799999999998 762.6299999999995 819.1299999999998C762.7899999999995 819.2599999999998 762.9599999999996 819.3599999999998 763.1699999999995 819.4999999999998C763.8599999999996 819.9099999999997 764.2599999999995 820.2299999999998 764.3499999999995 820.4199999999997C764.3099999999995 820.4699999999997 764.2299999999994 820.6399999999998 763.9099999999994 820.8799999999998C763.2199999999993 821.4399999999997 761.7999999999994 821.6499999999997 760.3099999999994 821.4399999999997C759.1999999999994 821.2799999999997 758.4499999999994 820.9399999999997 758.1199999999993 820.7099999999997L758.9399999999994 819.1299999999997C759.1099999999993 818.7899999999996 759.1299999999994 818.3899999999996 758.9699999999993 818.0299999999996C758.9599999999994 817.9699999999997 756.4799999999993 812.1899999999996 756.3899999999993 809.1299999999997C756.2999999999993 805.8499999999997 756.8199999999993 795.7599999999996 756.8399999999993 795.6499999999996C756.8599999999993 795.4799999999997 756.8199999999994 795.2899999999996 756.7499999999993 795.1299999999997C755.1599999999993 790.8699999999997 753.1699999999993 784.0299999999996 753.7399999999993 782.1499999999996C753.8899999999993 781.6299999999997 753.6999999999994 781.0499999999996 753.2699999999993 780.7299999999997C752.8199999999993 780.3999999999996 752.2299999999993 780.3999999999996 751.7599999999993 780.6899999999997C751.7299999999993 780.7099999999997 748.0199999999993 783.1999999999997 741.4299999999993 784.8099999999997C735.3399999999992 786.2999999999997 725.4599999999992 787.3399999999997 712.9599999999992 783.8399999999997C712.3199999999993 783.6699999999997 711.6599999999993 783.9799999999997 711.3999999999993 784.5899999999997C711.3599999999993 784.6699999999997 707.5999999999993 793.6599999999997 704.1999999999992 798.0599999999997C702.5499999999993 800.2099999999997 701.8599999999992 801.0599999999997 701.5999999999992 801.3999999999997C701.4799999999992 801.4899999999998 701.3799999999992 801.5899999999998 701.2899999999993 801.7299999999998C700.7299999999993 802.5599999999998 701.1499999999993 803.3099999999998 701.5699999999993 803.5999999999998C701.5999999999992 803.6199999999998 701.7199999999992 803.7099999999998 701.9099999999993 803.7699999999998C702.6599999999993 804.7399999999998 704.3599999999993 807.9499999999997 705.6199999999993 810.3499999999998C708.6099999999993 815.9799999999998 710.5099999999993 819.4599999999998 711.8799999999993 820.4199999999998C714.2899999999993 822.0799999999998 716.0999999999993 822.8399999999998 717.2899999999993 823.3599999999999C717.9499999999992 823.6399999999999 718.3299999999992 823.81 718.5799999999992 823.9699999999999C717.3599999999992 824.3299999999999 714.6399999999992 824.43 713.5499999999993 824.2099999999999C713.4999999999993 824.05 713.4599999999992 823.8599999999999 713.4299999999993 823.7199999999999C713.1699999999993 822.6999999999999 712.8199999999993 821.3199999999999 711.5499999999993 820.8C710.4099999999993 820 703.6599999999993 812.1899999999999 701.5699999999993 808.1899999999999C701.1999999999992 807.4999999999999 700.5999999999992 806.77 699.7999999999993 805.8399999999999C697.2299999999992 802.79 693.3699999999993 798.16 694.6799999999993 790.8199999999999L695.7099999999992 787.55C695.8799999999992 786.9799999999999 695.6499999999993 786.37 695.1499999999993 786.06C695.0499999999993 785.9899999999999 685.1999999999992 779.8299999999999 684.7299999999993 771.7199999999999C684.6799999999994 770.8199999999999 684.6399999999993 770.06 684.6399999999993 769.3299999999999C684.6399999999993 768.9899999999999 684.6299999999993 768.6199999999999 684.6299999999993 768.2399999999999C684.5699999999994 766.2999999999998 684.5199999999993 764.0999999999999 684.9899999999993 762.1999999999999C686.3099999999994 759.6899999999999 688.6699999999993 756.3299999999999 692.5699999999994 753.8199999999999C698.2899999999994 750.14 705.6799999999994 749.3299999999999 714.5199999999994 751.41C715.2099999999995 751.56 715.9199999999994 751.13 716.0799999999994 750.4399999999999C716.2299999999993 749.7499999999999 715.7999999999994 749.04 715.1099999999993 748.88C694.5399999999993 744.07 685.7899999999993 755.08 682.6499999999993 761.04C682.6299999999993 761.05 682.6199999999993 761.0899999999999 682.6199999999993 761.12C682.1999999999994 761.92 681.8899999999993 762.63 681.6599999999993 763.18C681.3999999999993 763.8399999999999 681.2299999999993 764.3399999999999 681.1199999999993 764.66C681.0699999999994 764.8299999999999 680.9999999999993 765.04 680.9699999999993 765.26C678.5099999999993 773.97 675.3999999999993 781.05 671.7099999999994 786.3199999999999C668.7599999999993 790.53 665.4499999999994 793.5899999999999 661.8399999999993 795.43C660.2699999999993 796.2199999999999 658.6699999999994 796.8 657.0399999999994 797.12C661.1499999999994 794.0600000000001 664.3399999999993 788.29 666.5299999999994 779.96C669.2299999999994 769.63 672.7199999999995 764.7800000000001 675.1399999999994 762.5300000000001C677.6699999999994 760.19 679.5299999999994 760.1700000000001 679.6199999999994 760.1700000000001H679.5999999999995L679.6999999999995 757.57C679.4299999999995 757.5600000000001 676.8799999999994 757.5400000000001 673.6699999999995 760.34C669.6099999999996 763.89 666.3699999999995 770.2800000000001 663.9899999999996 779.3100000000001C662.4999999999995 785.0000000000001 659.6799999999996 792.45 654.7199999999996 795.57C651.8899999999995 797.35 649.7099999999996 796.87 649.6199999999995 796.85C648.9399999999996 796.6700000000001 648.2699999999995 797.0600000000001 648.0599999999996 797.71C647.8499999999996 798.37 648.1999999999996 799.08 648.8399999999996 799.32C648.9799999999996 799.38 650.8699999999995 800.07 653.7799999999996 800.07C656.2399999999997 800.07 659.4299999999996 799.58 662.9199999999996 797.82C666.9099999999996 795.7900000000001 670.5699999999996 792.45 673.7699999999996 787.9000000000001C676.9799999999997 783.32 679.7699999999996 777.4900000000001 682.0799999999996 770.5100000000001C682.0999999999996 770.94 682.1099999999996 771.3900000000001 682.1499999999996 771.8800000000001C682.5999999999997 779.9100000000001 690.3099999999996 785.9000000000001 692.9499999999996 787.7200000000001L692.5299999999996 789.0700000000002C692.3299999999996 789.1100000000001 692.1199999999997 789.1900000000002 691.9299999999996 789.3300000000002C690.1899999999996 790.6700000000002 687.2099999999996 793.0400000000002 686.6599999999996 794.1100000000001C685.9099999999996 795.5700000000002 687.3699999999997 797.0200000000001 691.7399999999997 800.8000000000002C692.6399999999996 801.5800000000002 693.4899999999997 802.3200000000002 694.0199999999996 802.8400000000001C694.1799999999996 803.0000000000001 694.3699999999997 803.1000000000001 694.5799999999996 803.1700000000002C695.6499999999996 804.9300000000002 696.8699999999995 806.3700000000002 697.8399999999996 807.5300000000002C698.4999999999995 808.3100000000002 699.0499999999996 808.9900000000002 699.2999999999996 809.4200000000002C700.7499999999997 812.1900000000002 703.8899999999996 816.1200000000002 705.1699999999996 817.6800000000002C707.0499999999996 819.9500000000002 709.4699999999996 822.7400000000001 710.5099999999996 823.2000000000002C710.6699999999996 823.3900000000002 710.8299999999997 824.0400000000002 710.9099999999996 824.4000000000002C711.0499999999996 824.9400000000002 711.1699999999996 825.4600000000002 711.4499999999996 825.8900000000002C711.6599999999996 826.2300000000002 712.1099999999996 826.9600000000003 715.3199999999996 826.9600000000003C715.3699999999995 826.9600000000003 715.4199999999996 826.9600000000003 715.4699999999996 826.9600000000003C716.3699999999995 826.9600000000003 718.6099999999996 826.8800000000002 720.0299999999995 826.2300000000002C721.4699999999996 825.5800000000003 721.6999999999995 824.4900000000002 721.4399999999995 823.6700000000003C720.9499999999995 822.1300000000003 719.7899999999995 821.6500000000003 718.3299999999995 821.0200000000003C717.1699999999995 820.5200000000003 715.5799999999995 819.8400000000004 713.3899999999994 818.3400000000004C713.0299999999994 818.1000000000004 712.3999999999994 817.1800000000004 711.6699999999994 815.9700000000004C712.0599999999994 816.1900000000004 712.4699999999993 816.3500000000004 712.8899999999994 816.4500000000004C713.2399999999994 816.5400000000004 713.5799999999995 816.5700000000004 713.9099999999994 816.5700000000004C715.1099999999994 816.5700000000004 716.0999999999995 816.0500000000004 716.5499999999994 815.1500000000004C717.5999999999993 813.0200000000004 715.2599999999994 806.8900000000004 713.6899999999994 804.6600000000004C712.3699999999993 802.7900000000004 708.5199999999994 800.7100000000004 706.3499999999993 799.6400000000004C709.2499999999993 795.8300000000005 712.2499999999993 789.2800000000004 713.3599999999993 786.7200000000005C725.9399999999994 790.0400000000005 735.9499999999994 788.9300000000005 742.1699999999993 787.3800000000005C746.2499999999993 786.3700000000005 749.2599999999993 785.0600000000004 751.0999999999992 784.1200000000005C751.4499999999992 788.1200000000005 753.5499999999993 794.0100000000004 754.2199999999992 795.8400000000005C754.1399999999992 797.5200000000004 753.6999999999992 806.1600000000005 753.7899999999993 809.2600000000004C753.8799999999993 812.2300000000005 755.6799999999993 816.9200000000004 756.3399999999992 818.5500000000004L755.6399999999992 819.8800000000005C755.2499999999992 820.6400000000004 755.2299999999992 821.8000000000004 756.3899999999992 822.7500000000005C758.2299999999992 824.2600000000004 763.0499999999992 824.9700000000005 765.5099999999992 823.0100000000004C766.5199999999992 822.2200000000005 766.9999999999992 821.3200000000004 766.9299999999992 820.3500000000005C766.8299999999991 818.7700000000004 765.2999999999992 817.8500000000005 764.4899999999991 817.3700000000005C764.419999999999 817.3200000000005 764.3099999999991 817.2600000000004 764.2599999999991 817.2300000000005C763.9699999999991 816.9500000000005 762.419999999999 815.0800000000005 761.1099999999991 811.8600000000005C760.1399999999991 809.4900000000005 761.3299999999991 798.9400000000005 761.8499999999991 794.4600000000005C762.0299999999991 792.9200000000005 762.1499999999991 791.7900000000005 762.1799999999992 791.2200000000005C762.2899999999992 789.4500000000005 763.0799999999991 786.7000000000005 763.7099999999991 785.5200000000004C764.6399999999991 786.2200000000005 766.6899999999991 787.0500000000004 771.7999999999992 788.0700000000004C774.2499999999992 788.5500000000004 776.6199999999992 788.9300000000004 777.8499999999991 789.1100000000004L777.9799999999991 789.6100000000004C778.0499999999992 789.8900000000003 778.1999999999991 790.1300000000003 778.4099999999991 790.3000000000004C778.5099999999991 790.3900000000004 778.809999999999 791.2700000000004 778.049999999999 793.6400000000004C777.439999999999 795.5300000000004 776.449999999999 797.4500000000004 775.829999999999 798.3200000000004C774.939999999999 799.5500000000004 773.469999999999 800.2600000000004 772.8999999999991 800.3800000000003C772.169999999999 799.9800000000004 771.039999999999 799.8800000000003 770.0199999999991 800.1400000000003C768.6499999999991 800.5000000000003 767.679999999999 801.4700000000004 767.2599999999991 802.8400000000004C767.2099999999991 803.0500000000004 765.799999999999 807.8100000000004 767.4499999999991 809.6300000000003C767.9499999999991 810.1800000000003 768.6699999999992 810.4200000000003 769.4299999999992 810.2700000000003C770.9499999999991 809.9700000000004 772.4599999999991 808.2600000000003 773.3999999999992 807.0000000000003C774.2099999999991 807.1700000000003 775.2199999999992 806.9600000000004 776.4699999999992 806.3400000000004C779.6899999999993 804.7600000000003 785.6699999999993 794.4900000000004 787.2399999999992 790.1300000000003C789.1799999999993 784.7100000000004 783.7199999999992 782.2300000000004 781.9299999999993 781.4000000000003C781.7699999999993 781.3300000000003 781.6299999999993 781.2600000000003 781.5099999999993 781.2100000000003C781.1299999999993 781.0200000000002 780.5599999999993 780.9000000000003 779.4199999999993 780.6400000000002C777.1799999999993 780.1500000000002 771.9299999999993 779.0300000000002 771.1099999999993 776.9500000000002C771.0199999999993 776.7300000000001 770.7499999999993 776.0200000000002 771.7299999999993 774.5800000000002C776.2899999999993 768.0800000000002 774.9099999999993 764.3100000000002 774.4199999999994 763.3700000000001C774.1799999999994 762.6300000000001 773.6199999999994 761.9200000000001 772.9299999999994 761.0200000000001C771.0799999999994 758.6300000000001 769.7399999999993 756.6200000000001 770.9499999999994 754.1800000000001C772.5099999999993 751.0100000000001 773.5399999999994 744.1500000000001 774.1999999999994 739.6200000000001C774.2099999999994 739.5500000000001 774.2099999999994 739.4900000000001 774.2299999999993 739.4300000000001C775.2699999999993 740.45 776.6599999999993 741.47 778.0999999999993 742.5300000000001C778.4399999999994 742.7800000000001 778.8799999999993 743.08 779.0699999999994 743.2500000000001C779.1399999999994 743.4600000000002 779.2199999999993 743.8900000000001 779.2899999999994 744.2200000000001C779.5899999999993 745.6800000000002 780.0599999999994 747.8600000000001 781.3699999999994 749.4300000000002C782.3999999999994 750.6500000000002 784.2899999999994 751.0300000000002 786.2999999999994 750.4400000000002C788.5199999999994 749.7800000000002 791.2699999999994 747.7200000000001 791.7399999999994 744.0500000000002C792.4199999999994 739.1100000000001 787.5799999999995 722.9400000000002 786.6499999999994 719.8900000000002ZM689.33 794.93C689.83 794.41 690.83 793.56 691.9100000000001 792.67C691.7900000000001 794.56 691.9800000000001 796.29 692.3800000000001 797.8499999999999C691.2200000000001 796.8299999999999 689.8800000000001 795.6199999999999 689.3300000000002 794.93ZM709.4 811.84C709.51 812 709.59 812.1600000000001 709.65 812.2900000000001C709.5799999999999 812.1400000000001 709.49 811.9800000000001 709.4 811.84ZM711.59 806.1C713.1 808.24 714.4300000000001 812.78 714.26 813.89C714.0699999999999 813.96 713.55 813.97 713.03 813.6999999999999C712.5799999999999 813.4499999999999 712.35 813.1299999999999 712.35 812.6899999999999C712.35 811.2199999999999 711.26 809.5799999999999 709.02 807.67C707.53 806.39 706.0699999999999 805.4499999999999 706.01 805.42C705.99 805.4 705.95 805.39 705.9399999999999 805.39C705.16 803.98 704.6199999999999 803.06 704.17 802.4399999999999C704.3399999999999 802.2299999999999 704.53 801.9699999999999 704.76 801.6999999999999C707.24 802.8599999999999 710.6899999999999 804.8 711.59 806.0999999999999Z " fill="#010101" fill-opacity="1" transform="matrix(1,0,0,1,-647,-707)"></path></svg>