<svg id="SvgjsSvg1021" xmlns="http://www.w3.org/2000/svg" version="1.1" xmlns:xlink="http://www.w3.org/1999/xlink" xmlns:svgjs="http://svgjs.com/svgjs" width="131" height="73" viewBox="0 0 131 73"><title>Fill 1</title><desc>Created with Avocode.</desc><defs id="SvgjsDefs1022"></defs><path id="SvgjsPath1023" d="M61.33 143.34C59.699999999999996 143.34 58.53 144.44 58.53 146.20000000000002C58.53 147.96 59.7 149.07000000000002 61.33 149.07000000000002C62.949999999999996 149.07000000000002 64.13 147.96 64.13 146.20000000000002C64.13 144.44000000000003 62.949999999999996 143.34 61.33 143.34ZM62.03 152.4C60.46 152.4 59.300000000000004 151.86 58.53 150.97V156.77H55V140.33H58.53V141.43C59.300000000000004 140.54000000000002 60.46 140 62.03 140C65.11 140 67.65 142.7 67.65 146.2C67.65 149.7 65.11 152.39999999999998 62.03000000000001 152.39999999999998Z " fill="#a3a3a3" fill-opacity="1" transform="matrix(1,0,0,1,-55,-84)"></path><path id="SvgjsPath1024" d="M78.73 144.98C78.35000000000001 143.61999999999998 77.29 143.11999999999998 76.23 143.11999999999998C74.89 143.11999999999998 74 143.77999999999997 73.67 144.98ZM78.82 148.36L81.63999999999999 149.98000000000002C80.48999999999998 151.58 78.74999999999999 152.4 76.50999999999999 152.4C72.49 152.4 69.99999999999999 149.70000000000002 69.99999999999999 146.20000000000002C69.99999999999999 142.70000000000002 72.53999999999999 140.00000000000003 76.25999999999999 140.00000000000003C79.69 140.00000000000003 82.22999999999999 142.65000000000003 82.22999999999999 146.20000000000002C82.22999999999999 146.69000000000003 82.17999999999999 147.16000000000003 82.08999999999999 147.61H73.74C74.19 148.83 75.27 149.25 76.55999999999999 149.25C77.52999999999999 149.25 78.35 148.88 78.82 148.36Z " fill="#a3a3a3" fill-opacity="1" transform="matrix(1,0,0,1,-55,-84)"></path><path id="SvgjsPath1025" d="M87.41 143.67V147.82999999999998C87.41 148.83999999999997 88.28 148.92999999999998 89.83 148.83999999999997V152.02999999999997C85.22 152.49999999999997 83.88 151.11999999999998 83.88 147.82999999999998V143.67H82V140.29H83.88V138.06L87.41 137V140.29H89.83V143.67Z " fill="#a3a3a3" fill-opacity="1" transform="matrix(1,0,0,1,-55,-84)"></path><path id="SvgjsPath1026" d="M100.95 148.55C100.95 151.25 98.60000000000001 152.4 96.06 152.4C93.7 152.4 91.92 151.51000000000002 91 149.61L94.06 147.87C94.36 148.76 95.02 149.25 96.06 149.25C96.9 149.25 97.33 149 97.33 148.53C97.33 147.23 91.53999999999999 147.92 91.53999999999999 143.85C91.53999999999999 141.29 93.69999999999999 140 96.14999999999999 140C98.05999999999999 140 99.74999999999999 140.85 100.74 142.51L97.72999999999999 144.13C97.39999999999999 143.51999999999998 96.92999999999999 143.1 96.14999999999999 143.1C95.53999999999999 143.1 95.16 143.34 95.16 143.76C95.16 145.1 100.95 144.2 100.95 148.54999999999998 " fill="#a3a3a3" fill-opacity="1" transform="matrix(1,0,0,1,-55,-84)"></path><path id="SvgjsPath1027" d="M113.1 140.05H115.28999999999999V143.43H113.1V151.79000000000002H109.58V143.43H108V140.05H109.58C109.58 136.76000000000002 111.39 134.78 115.28999999999999 135.02V138.4C113.97 138.28 113.1 138.68 113.1 140.05 " fill="#a3a3a3" fill-opacity="1" transform="matrix(1,0,0,1,-55,-84)"></path><path id="SvgjsPath1028" d="M122.23 143.43C120.7 143.43 119.53 144.53 119.53 146.20000000000002C119.53 147.87 120.7 148.97000000000003 122.23 148.97000000000003C123.76 148.97000000000003 124.94 147.87000000000003 124.94 146.20000000000002C124.94 144.53000000000003 123.75999999999999 143.43 122.23 143.43ZM122.23 140C125.69 140 128.47 142.7 128.47 146.2C128.47 149.7 125.69 152.39999999999998 122.23 152.39999999999998C118.77000000000001 152.39999999999998 116 149.7 116 146.2C116 142.7 118.77 140 122.23 140Z " fill="#a3a3a3" fill-opacity="1" transform="matrix(1,0,0,1,-55,-84)"></path><path id="SvgjsPath1029" d="M137.06 140V143.99C135.6 143.76000000000002 133.53 144.35000000000002 133.53 146.67000000000002V151.98000000000002H130V140.23000000000002H133.53V142.33C134 140.75 135.57 140 137.06 140 " fill="#a3a3a3" fill-opacity="1" transform="matrix(1,0,0,1,-55,-84)"></path><path id="SvgjsPath1030" d="M146.73 144.98C146.35 143.61999999999998 145.29 143.11999999999998 144.23 143.11999999999998C142.89 143.11999999999998 142 143.77999999999997 141.67 144.98ZM146.82 148.36L149.64 149.98000000000002C148.48999999999998 151.58 146.75 152.4 144.51 152.4C140.48999999999998 152.4 138 149.70000000000002 138 146.20000000000002C138 142.70000000000002 140.54 140.00000000000003 144.26 140.00000000000003C147.69 140.00000000000003 150.23 142.65000000000003 150.23 146.20000000000002C150.23 146.69000000000003 150.17999999999998 147.16000000000003 150.09 147.61H141.74C142.19 148.83 143.27 149.25 144.56 149.25C145.53 149.25 146.35 148.88 146.82 148.36Z " fill="#a3a3a3" fill-opacity="1" transform="matrix(1,0,0,1,-55,-84)"></path><path id="SvgjsPath1031" d="M163.7 140L159.35 151.74H155.35L151 140H154.9L157.35 147.45L159.79999999999998 140Z " fill="#a3a3a3" fill-opacity="1" transform="matrix(1,0,0,1,-55,-84)"></path><path id="SvgjsPath1032" d="M171.73 144.98C171.35 143.61999999999998 170.29 143.11999999999998 169.23 143.11999999999998C167.89 143.11999999999998 167 143.77999999999997 166.67 144.98ZM171.82 148.36L174.64 149.98000000000002C173.48999999999998 151.58 171.75 152.4 169.51 152.4C165.48999999999998 152.4 163 149.70000000000002 163 146.20000000000002C163 142.70000000000002 165.54 140.00000000000003 169.26 140.00000000000003C172.69 140.00000000000003 175.23 142.65000000000003 175.23 146.20000000000002C175.23 146.69000000000003 175.17999999999998 147.16000000000003 175.09 147.61H166.74C167.19 148.83 168.27 149.25 169.56 149.25C170.53 149.25 171.35 148.88 171.82 148.36Z " fill="#a3a3a3" fill-opacity="1" transform="matrix(1,0,0,1,-55,-84)"></path><path id="SvgjsPath1033" d="M185.06 140V143.99C183.6 143.76000000000002 181.53 144.35000000000002 181.53 146.67000000000002V151.98000000000002H178V140.23000000000002H181.53V142.33C182 140.75 183.57 140 185.06 140 " fill="#a3a3a3" fill-opacity="1" transform="matrix(1,0,0,1,-55,-84)"></path><path id="SvgjsPath1034" d="M133.39 125.33C133.33999999999997 125.33 133.29999999999998 125.33 133.25 125.32C132.49 125.25 131.94 124.58 132.01 123.82C132.35 120.44999999999999 132.92999999999998 119.82 135.07 118.82C136.01999999999998 118.36999999999999 137.45999999999998 117.69999999999999 139.65 116.05999999999999C143.84 112.93999999999998 143.43 111.94999999999999 142.96 110.79999999999998C142.82000000000002 110.45999999999998 142.66 110.06999999999998 142.55 109.62999999999998C142.44 109.33999999999997 141.65 108.39999999999998 136.97 106.33999999999997C136.57 106.15999999999997 136.29 106.02999999999997 136.17 105.96999999999997C135.79 105.76999999999997 135.19 105.43999999999997 133.73999999999998 101.52999999999997C130.95999999999998 103.42999999999998 126.37999999999998 106.43999999999997 126.13999999999999 106.59999999999997C125.50999999999999 107.01999999999997 124.64999999999999 106.83999999999996 124.22999999999999 106.20999999999997C123.80999999999999 105.56999999999996 123.97999999999999 104.71999999999997 124.61999999999999 104.29999999999997C124.68999999999998 104.25999999999996 131.6 99.70999999999997 133.64 98.25999999999996C133.98999999999998 97.99999999999996 134.45 97.92999999999996 134.85999999999999 98.06999999999996C135.27999999999997 98.19999999999996 135.60999999999999 98.51999999999997 135.74999999999997 98.92999999999996C136.37999999999997 100.76999999999997 137.25999999999996 102.98999999999997 137.65999999999997 103.62999999999997C137.76999999999998 103.67999999999996 137.90999999999997 103.74999999999997 138.07999999999996 103.81999999999996C142.06999999999996 105.56999999999996 144.80999999999995 107.12999999999997 145.23999999999995 109.00999999999996C145.29999999999995 109.22999999999996 145.39999999999995 109.48999999999997 145.50999999999996 109.75999999999996C146.60999999999996 112.42999999999996 146.25999999999996 114.56999999999996 141.30999999999997 118.26999999999997C138.89 120.06999999999996 137.29999999999998 120.81999999999996 136.24999999999997 121.30999999999997C134.97999999999996 121.89999999999998 134.97999999999996 121.89999999999998 134.75999999999996 124.08999999999997C134.68999999999997 124.79999999999997 134.08999999999997 125.32999999999997 133.38999999999996 125.32999999999997 " fill="#a3a3a3" fill-opacity="1" transform="matrix(1,0,0,1,-55,-84)"></path><path id="SvgjsPath1035" d="M107.14 125.99C106.91 125.99 106.69 125.92999999999999 106.48 125.82C105.81 125.46 105.56 124.63 105.92 123.96C106.9 122.16999999999999 101.53 119.08 97.22 116.58999999999999C92.31 113.75999999999999 90.88 110.60999999999999 92.86 106.96999999999998C93.96 104.94999999999999 95.97 105.15999999999998 97.44 105.30999999999999C97.88 105.35999999999999 98.34 105.40999999999998 98.77 105.39999999999999C100.13 105.38999999999999 100.42 105.38999999999999 103.89 102.07C108.01 98.13999999999999 110.91 98.91 112.83 99.41999999999999C114.87 99.96999999999998 120.2 102.97999999999999 122.44 105.83999999999999C124.14 108.02 127.85 117.44999999999999 125.00999999999999 121.94C124.1 123.37 122.16 124.89 118.1 124C114.91 123.29 113.00999999999999 121.87 112.44999999999999 119.77C111.29999999999998 115.44 116.80999999999999 110.32 117.43999999999998 109.75C117.99999999999999 109.24 118.87999999999998 109.28 119.38999999999999 109.84C119.89999999999999 110.4 119.85999999999999 111.27000000000001 119.28999999999999 111.78C117.38999999999999 113.51 114.57 117.01 115.11999999999999 119.07000000000001C115.46 120.34 117.24999999999999 120.99000000000001 118.69999999999999 121.31C121.71999999999998 121.98 122.43999999999998 120.84 122.66999999999999 120.47C124.52999999999999 117.53999999999999 121.65999999999998 109.31 120.25999999999999 107.53C118.49 105.26 113.77 102.52 112.11999999999999 102.08C110.41 101.63 108.78999999999999 101.2 105.79999999999998 104.06C102.23999999999998 107.46000000000001 101.31999999999998 108.13 98.79999999999998 108.15C98.21999999999998 108.16000000000001 97.64999999999998 108.10000000000001 97.14999999999998 108.05000000000001C95.69999999999997 107.9 95.46999999999997 107.96000000000001 95.28999999999998 108.28000000000002C94.66999999999997 109.42000000000002 93.61999999999998 111.34000000000002 98.60999999999997 114.21000000000001C104.77999999999997 117.77000000000001 110.59999999999997 121.13000000000001 108.34999999999997 125.27000000000001C108.09999999999997 125.73 107.62999999999997 125.99000000000001 107.13999999999997 125.99000000000001 " fill="#a3a3a3" fill-opacity="1" transform="matrix(1,0,0,1,-55,-84)"></path><path id="SvgjsPath1036" d="M122.68 90.88C127.7 90.5 129.93 89.50999999999999 130.67000000000002 89C130.55 88.93 130.4 88.86 130.20000000000002 88.77C126.44000000000001 87.21 114.64000000000001 87.44 113.75000000000001 89.08999999999999C113.76000000000002 89.08999999999999 113.80000000000001 89.24 114.02000000000001 89.52999999999999C114.06000000000002 89.57999999999998 114.05000000000001 89.55999999999999 114.06000000000002 89.57999999999998C114.31000000000002 89.81999999999998 116.18000000000002 91.38999999999999 122.68000000000002 90.87999999999998ZM111.79 91.15C110.4 89.29 111.18 87.9 111.58000000000001 87.38000000000001C114.35000000000001 83.84 128.18 84.95 131.26000000000002 86.23C133.59000000000003 87.2 133.74 88.58 133.62000000000003 89.31C133.11000000000004 92.5 125.95000000000003 93.39 122.90000000000003 93.63C121.95000000000003 93.69999999999999 121.08000000000004 93.72999999999999 120.28000000000003 93.72999999999999C114.03000000000003 93.72999999999999 112.18000000000004 91.71999999999998 111.79000000000003 91.14999999999999Z " fill="#a3a3a3" fill-opacity="1" transform="matrix(1,0,0,1,-55,-84)"></path></svg>