<svg id="SvgjsSvg1000" xmlns="http://www.w3.org/2000/svg" version="1.1" xmlns:xlink="http://www.w3.org/1999/xlink" xmlns:svgjs="http://svgjs.com/svgjs" width="99" height="55" viewBox="0 0 99 55"><title>Fill 1</title><desc>Created with Avocode.</desc><defs id="SvgjsDefs1001"></defs><path id="SvgjsPath1007" d="M75.77 66.52C74.55 66.52 73.66 67.36 73.66 68.69C73.66 70.03 74.55 70.86 75.77 70.86C76.99 70.86 77.88 70.03 77.88 68.69C77.88 67.36 76.99 66.52 75.77 66.52ZM76.3 73.38C75.11 73.38 74.24 72.97999999999999 73.66 72.3V76.69H71V64.25H73.66V65.08C74.24 64.41 75.11 64 76.3 64C78.61999999999999 64 80.53999999999999 66.04 80.53999999999999 68.69C80.53999999999999 71.34 78.61999999999999 73.38 76.3 73.38Z " fill="#000000" fill-opacity="1" transform="matrix(1,0,0,1,-71,-22)"></path><path id="SvgjsPath1008" d="M88.58 67.77C88.28999999999999 66.74 87.5 66.36 86.7 66.36C85.69 66.36 85.01 66.86 84.77 67.77ZM88.65 70.33L90.78 71.55C89.91 72.75999999999999 88.6 73.38 86.91 73.38C83.88 73.38 82 71.33999999999999 82 68.69C82 66.03999999999999 83.91 64 86.72 64C89.3 64 91.22 66.01 91.22 68.69C91.22 69.07 91.17999999999999 69.42 91.11 69.75999999999999H84.82C85.16 70.67999999999999 85.97 70.99999999999999 86.94999999999999 70.99999999999999C87.66999999999999 70.99999999999999 88.28999999999999 70.71999999999998 88.64999999999999 70.32999999999998Z " fill="#000000" fill-opacity="1" transform="matrix(1,0,0,1,-71,-22)"></path><path id="SvgjsPath1009" d="M96.08 67.05V70.19C96.08 70.96 96.73 71.03 97.89999999999999 70.96V73.38C94.42999999999999 73.72999999999999 93.41999999999999 72.67999999999999 93.41999999999999 70.19V67.05H91.99999999999999V64.49H93.41999999999999V62.8L96.07999999999998 62V64.49H97.89999999999998V67.05Z " fill="#000000" fill-opacity="1" transform="matrix(1,0,0,1,-71,-22)"></path><path id="SvgjsPath1010" d="M105.5 70.47C105.5 72.51 103.73 73.38 101.81 73.38C100.04 73.38 98.69 72.71 98 71.27L100.3 69.95C100.53999999999999 70.63000000000001 101.03 71 101.81 71C102.45 71 102.77 70.81 102.77 70.45C102.77 69.47 98.41 69.99000000000001 98.41 66.92C98.41 64.98 100.03999999999999 64 101.88 64C103.32 64 104.6 64.64 105.33999999999999 65.9L103.07 67.13000000000001C102.82 66.67000000000002 102.47 66.35000000000001 101.88 66.35000000000001C101.42 66.35000000000001 101.14 66.52000000000001 101.14 66.84C101.14 67.86 105.5 67.18 105.5 70.47 " fill="#000000" fill-opacity="1" transform="matrix(1,0,0,1,-71,-22)"></path><path id="SvgjsPath1011" d="M114.85 64.82H116.5V67.38H114.85V73.71H112.19V67.38H111V64.82H112.19C112.19 62.32999999999999 113.55 60.839999999999996 116.5 61.00999999999999V63.56999999999999C115.5 63.489999999999995 114.85 63.78999999999999 114.85 64.82 " fill="#000000" fill-opacity="1" transform="matrix(1,0,0,1,-71,-22)"></path><path id="SvgjsPath1012" d="M121.7 66.59C120.55 66.59 119.66 67.43 119.66 68.69C119.66 69.95 120.55 70.78999999999999 121.7 70.78999999999999C122.85000000000001 70.78999999999999 123.74000000000001 69.94999999999999 123.74000000000001 68.69C123.74000000000001 67.42999999999999 122.85000000000001 66.59 121.7 66.59ZM121.7 64C124.3 64 126.4 66.04 126.4 68.69C126.4 71.34 124.30000000000001 73.38 121.7 73.38C119.09 73.38 117 71.33999999999999 117 68.69C117 66.03999999999999 119.09 64 121.7 64Z " fill="#000000" fill-opacity="1" transform="matrix(1,0,0,1,-71,-22)"></path><path id="SvgjsPath1013" d="M133.32 64V67.02C132.22 66.83999999999999 130.66 67.28999999999999 130.66 69.05V73.07H128V64.17999999999999H130.66V65.75999999999999C131.01 64.57 132.2 63.99999999999999 133.32 63.99999999999999 " fill="#000000" fill-opacity="1" transform="matrix(1,0,0,1,-71,-22)"></path><path id="SvgjsPath1014" d="M140.58 67.77C140.29000000000002 66.74 139.5 66.36 138.70000000000002 66.36C137.69000000000003 66.36 137.01000000000002 66.86 136.77 67.77ZM140.65 70.33L142.78 71.55C141.91 72.75999999999999 140.6 73.38 138.91 73.38C135.88 73.38 134 71.33999999999999 134 68.69C134 66.03999999999999 135.91 64 138.72 64C141.3 64 143.22 66.01 143.22 68.69C143.22 69.07 143.18 69.42 143.10999999999999 69.75999999999999H136.82C137.16 70.67999999999999 137.97 70.99999999999999 138.95 70.99999999999999C139.67 70.99999999999999 140.29 70.71999999999998 140.64999999999998 70.32999999999998Z " fill="#000000" fill-opacity="1" transform="matrix(1,0,0,1,-71,-22)"></path><path id="SvgjsPath1015" d="M152.57 65L149.29 73.89H146.28L143 65H145.94L147.79 70.63L149.63 65Z " fill="#000000" fill-opacity="1" transform="matrix(1,0,0,1,-71,-22)"></path><path id="SvgjsPath1016" d="M159.58 67.77C159.29000000000002 66.74 158.5 66.36 157.70000000000002 66.36C156.69000000000003 66.36 156.01000000000002 66.86 155.77 67.77ZM159.65 70.33L161.78 71.55C160.91 72.75999999999999 159.6 73.38 157.91 73.38C154.88 73.38 153 71.33999999999999 153 68.69C153 66.03999999999999 154.91 64 157.72 64C160.3 64 162.22 66.01 162.22 68.69C162.22 69.07 162.18 69.42 162.10999999999999 69.75999999999999H155.82C156.16 70.67999999999999 156.97 70.99999999999999 157.95 70.99999999999999C158.67 70.99999999999999 159.29 70.71999999999998 159.64999999999998 70.32999999999998Z " fill="#000000" fill-opacity="1" transform="matrix(1,0,0,1,-71,-22)"></path><path id="SvgjsPath1017" d="M169.32 64V67.02C168.22 66.83999999999999 166.66 67.28999999999999 166.66 69.05V73.07H164V64.17999999999999H166.66V65.75999999999999C167.01 64.57 168.2 63.99999999999999 169.32 63.99999999999999 " fill="#000000" fill-opacity="1" transform="matrix(1,0,0,1,-71,-22)"></path><path id="SvgjsPath1018" d="M130.08 53.68C130.04000000000002 53.68 130.01000000000002 53.68 129.98000000000002 53.68C129.4 53.62 128.98000000000002 53.11 129.04000000000002 52.54C129.29000000000002 49.99 129.73000000000002 49.51 131.35000000000002 48.76C132.06000000000003 48.419999999999995 133.15000000000003 47.91 134.8 46.67C137.95000000000002 44.31 137.65 43.56 137.29000000000002 42.690000000000005C137.18 42.43000000000001 137.06000000000003 42.13 136.99 41.800000000000004C136.9 41.580000000000005 136.3 40.870000000000005 132.78 39.31C132.48 39.18 132.26 39.080000000000005 132.17 39.03C131.89 38.88 131.44 38.63 130.35 35.67C128.25 37.11 124.78999999999999 39.39 124.61 39.510000000000005C124.13 39.82000000000001 123.49 39.690000000000005 123.17 39.21000000000001C122.86 38.73000000000001 122.99 38.09000000000001 123.47 37.77000000000001C123.52 37.74000000000001 128.73 34.29000000000001 130.27 33.19000000000001C130.53 33.000000000000014 130.88000000000002 32.95000000000001 131.19 33.05000000000001C131.5 33.15000000000001 131.75 33.390000000000015 131.85999999999999 33.70000000000001C132.32999999999998 35.10000000000001 132.99999999999997 36.78000000000001 133.29999999999998 37.26000000000001C133.38 37.30000000000001 133.48999999999998 37.350000000000016 133.61999999999998 37.40000000000001C136.61999999999998 38.73000000000001 138.68999999999997 39.91000000000001 139.01999999999998 41.33000000000001C139.04999999999998 41.500000000000014 139.13 41.70000000000001 139.21999999999997 41.90000000000001C140.03999999999996 43.920000000000016 139.77999999999997 45.54000000000001 136.04999999999998 48.34000000000001C134.23 49.70000000000001 133.02999999999997 50.27000000000001 132.23 50.64000000000001C131.28 51.09000000000001 131.28 51.09000000000001 131.10999999999999 52.74000000000001C131.05999999999997 53.28000000000001 130.60999999999999 53.68000000000001 130.07999999999998 53.68000000000001 " fill="#000000" fill-opacity="1" transform="matrix(1,0,0,1,-71,-22)"></path><path id="SvgjsPath1019" d="M110.41 53.42C110.24 53.42 110.07 53.38 109.92 53.300000000000004C109.41 53.02 109.22 52.39000000000001 109.5 51.89000000000001C110.23 50.53000000000001 106.19 48.190000000000005 102.94 46.31000000000001C99.23 44.17000000000001 98.16 41.790000000000006 99.64999999999999 39.03000000000001C100.47999999999999 37.50000000000001 101.99 37.66000000000001 103.1 37.78000000000001C103.42999999999999 37.81000000000001 103.78 37.85000000000001 104.1 37.85000000000001C105.13 37.830000000000005 105.35 37.830000000000005 107.96 35.330000000000005C111.07 32.35000000000001 113.25 32.93000000000001 114.69999999999999 33.32000000000001C116.24 33.730000000000004 120.25999999999999 36.010000000000005 121.94999999999999 38.18000000000001C123.22999999999999 39.82000000000001 126.02999999999999 46.96000000000001 123.88 50.36000000000001C123.19999999999999 51.440000000000005 121.74 52.59 118.67999999999999 51.92000000000001C116.27 51.38000000000001 114.83999999999999 50.31000000000001 114.41999999999999 48.720000000000006C113.54999999999998 45.440000000000005 117.69999999999999 41.56 118.17999999999999 41.13000000000001C118.6 40.75000000000001 119.25999999999999 40.78000000000001 119.64999999999999 41.21000000000001C120.02999999999999 41.63000000000001 119.99999999999999 42.290000000000006 119.57 42.67000000000001C118.13999999999999 43.98000000000001 116.02 46.63000000000001 116.42999999999999 48.19000000000001C116.69 49.15000000000001 118.03999999999999 49.640000000000015 119.13 49.88000000000001C121.39999999999999 50.39000000000001 121.94 49.53000000000001 122.11999999999999 49.25000000000001C123.52 47.03000000000001 121.35999999999999 40.80000000000001 120.30999999999999 39.46000000000001C118.96999999999998 37.74000000000001 115.40999999999998 35.67000000000001 114.15999999999998 35.330000000000005C112.87999999999998 34.99 111.65999999999998 34.660000000000004 109.39999999999998 36.830000000000005C106.71999999999997 39.400000000000006 106.02999999999997 39.910000000000004 104.12999999999998 39.93000000000001C103.68999999999998 39.93000000000001 103.25999999999998 39.89000000000001 102.87999999999998 39.85000000000001C101.78999999999998 39.73000000000001 101.60999999999999 39.78000000000001 101.47999999999998 40.02000000000001C101.00999999999998 40.89000000000001 100.21999999999997 42.34000000000001 103.97999999999998 44.51000000000001C108.62999999999998 47.20000000000001 113.02999999999997 49.74000000000001 111.32999999999997 52.88000000000001C111.13999999999997 53.23000000000001 110.77999999999997 53.42000000000001 110.40999999999997 53.42000000000001 " fill="#000000" fill-opacity="1" transform="matrix(1,0,0,1,-71,-22)"></path><path id="SvgjsPath1020" d="M121.81 27.45C125.59 27.16 127.27 26.41 127.83 26.03C127.74 25.98 127.63 25.92 127.47 25.85C124.64 24.68 115.74 24.85 115.08 26.09C115.08 26.09 115.11 26.21 115.27 26.43C115.31 26.47 115.3 26.45 115.31 26.46C115.49000000000001 26.650000000000002 116.9 27.830000000000002 121.81 27.45ZM113.59 27.65C112.55 26.25 113.14 25.189999999999998 113.44 24.799999999999997C115.53 22.119999999999997 125.95 22.97 128.27 23.929999999999996C130.03 24.669999999999995 130.14000000000001 25.709999999999997 130.06 26.259999999999998C129.67000000000002 28.68 124.27 29.349999999999998 121.97 29.529999999999998C121.25 29.58 120.6 29.609999999999996 119.99 29.609999999999996C115.28 29.609999999999996 113.89 28.089999999999996 113.58999999999999 27.649999999999995Z " fill="#000000" fill-opacity="1" transform="matrix(1,0,0,1,-71,-22)"></path></svg>