<?xml version="1.0" encoding="UTF-8"?>
<svg width="19px" height="17px" viewBox="0 0 19 17" version="1.1" xmlns="http://www.w3.org/2000/svg" xmlns:xlink="http://www.w3.org/1999/xlink">
    <!-- Generator: Sketch 40.3 (33839) - http://www.bohemiancoding.com/sketch -->
    <title>message</title>
    <desc>Created with Sketch.</desc>
    <defs></defs>
    <g id="User-Interface" stroke="none" stroke-width="1" fill="none" fill-rule="evenodd">
        <g id="Case-Manager-Dashboard" transform="translate(-720.000000, -210.000000)" fill="#616161">
            <g id="Messages" transform="translate(720.000000, 201.000000)">
                <g id="message" transform="translate(0.000000, 9.000000)">
                    <path d="M18.2692308,0 L0.521978022,0 C0.22967033,0 0,0.230864198 0,0.524691358 L0,12.0679012 C0,12.3617284 0.22967033,12.5925926 0.521978022,12.5925926 L3.13186813,12.5925926 L3.13186813,16.2654321 C3.13186813,16.4962963 3.27802198,16.6851852 3.48681319,16.7691358 C3.6956044,16.8320988 3.94615385,16.7691358 4.07142857,16.5802469 L7.05714286,12.5925926 L18.2901099,12.5925926 C18.5824176,12.5925926 18.8120879,12.3617284 18.8120879,12.0679012 L18.8120879,0.524691358 C18.7912088,0.230864198 18.5615385,0 18.2692308,0 L18.2692308,0 Z M17.7472527,11.5432099 L6.78571429,11.5432099 C6.61868132,11.5432099 6.47252747,11.6271605 6.36813187,11.7530864 L4.17582418,14.691358 L4.17582418,12.0679012 C4.17582418,11.7740741 3.94615385,11.5432099 3.65384615,11.5432099 L1.04395604,11.5432099 L1.04395604,1.04938272 L17.7472527,1.04938272 L17.7472527,11.5432099 L17.7472527,11.5432099 Z" id="Shape"></path>
                    <path d="M3.65384615,4.19753086 L9.91758242,4.19753086 C10.2098901,4.19753086 10.4395604,3.96666667 10.4395604,3.67283951 C10.4395604,3.37901235 10.2098901,3.14814815 9.91758242,3.14814815 L3.65384615,3.14814815 C3.36153846,3.14814815 3.13186813,3.37901235 3.13186813,3.67283951 C3.13186813,3.96666667 3.36153846,4.19753086 3.65384615,4.19753086 L3.65384615,4.19753086 Z" id="Shape"></path>
                    <path d="M15.1373626,5.77160494 L9.91758242,5.77160494 C9.62527473,5.77160494 9.3956044,6.00246914 9.3956044,6.2962963 C9.3956044,6.59012346 9.62527473,6.82098765 9.91758242,6.82098765 L15.1373626,6.82098765 C15.4296703,6.82098765 15.6593407,6.59012346 15.6593407,6.2962963 C15.6593407,6.00246914 15.4296703,5.77160494 15.1373626,5.77160494 L15.1373626,5.77160494 Z" id="Shape"></path>
                    <path d="M3.65384615,6.82098765 L7.82967033,6.82098765 C8.12197802,6.82098765 8.35164835,6.59012346 8.35164835,6.2962963 C8.35164835,6.00246914 8.12197802,5.77160494 7.82967033,5.77160494 L3.65384615,5.77160494 C3.36153846,5.77160494 3.13186813,6.00246914 3.13186813,6.2962963 C3.13186813,6.59012346 3.36153846,6.82098765 3.65384615,6.82098765 L3.65384615,6.82098765 Z" id="Shape"></path>
                    <path d="M10.9615385,8.39506173 L7.82967033,8.39506173 C7.53736264,8.39506173 7.30769231,8.62592593 7.30769231,8.91975309 C7.30769231,9.21358025 7.53736264,9.44444444 7.82967033,9.44444444 L10.9615385,9.44444444 C11.2538462,9.44444444 11.4835165,9.21358025 11.4835165,8.91975309 C11.4835165,8.62592593 11.2538462,8.39506173 10.9615385,8.39506173 L10.9615385,8.39506173 Z" id="Shape"></path>
                    <path d="M3.65384615,9.44444444 L5.74175824,9.44444444 C6.03406593,9.44444444 6.26373626,9.21358025 6.26373626,8.91975309 C6.26373626,8.62592593 6.03406593,8.39506173 5.74175824,8.39506173 L3.65384615,8.39506173 C3.36153846,8.39506173 3.13186813,8.62592593 3.13186813,8.91975309 C3.13186813,9.21358025 3.36153846,9.44444444 3.65384615,9.44444444 L3.65384615,9.44444444 Z" id="Shape"></path>
                    <path d="M12.0054945,4.19753086 L15.1373626,4.19753086 C15.4296703,4.19753086 15.6593407,3.96666667 15.6593407,3.67283951 C15.6593407,3.37901235 15.4296703,3.14814815 15.1373626,3.14814815 L12.0054945,3.14814815 C11.7131868,3.14814815 11.4835165,3.37901235 11.4835165,3.67283951 C11.4835165,3.96666667 11.7131868,4.19753086 12.0054945,4.19753086 L12.0054945,4.19753086 Z" id="Shape"></path>
                </g>
            </g>
        </g>
    </g>
</svg>