<?xml version="1.0" encoding="UTF-8" standalone="no"?>
<svg width="390px" height="55px" viewBox="0 0 390 55" version="1.1" xmlns="http://www.w3.org/2000/svg" xmlns:xlink="http://www.w3.org/1999/xlink">
    <!-- Generator: Sketch 3.6.1 (26313) - http://www.bohemiancoding.com/sketch -->
    <title>Artboard</title>
    <desc>Created with Sketch.</desc>
    <defs></defs>
    <g id="Page-1" stroke="none" stroke-width="1" fill="none" fill-rule="evenodd">
        <g id="Artboard" fill="#000000">
            <g id="thenatives-logo">
                <path d="M8.2,17.8 C7.7,17.5 7.2,17.1 6.8,16.8 C6.2,16.4 5.6,16 5,15.5 C4.9,15.4 4.9,15.4 4.8,15.3 C3.5,13.6 2.3,12 1,10.3 C0.9,10.2 0.9,10.1 0.9,10 C0.9,7.7 0.8,5.5 0.8,3.2 C0.8,3.1 0.8,3 0.9,3 C2.5,2.2 4.1,1.3 5.8,0.5 C6,0.4 6.1,0.4 6.2,0.4 C9.8,1.1 13.4,1.9 17,2.6 C17.3,2.7 17.5,2.7 17.7,2.8 C17.8,2.9 18,2.9 18.1,2.8 C21.2,1.9 24.3,1 27.5,0.1 C27.8,-7.10542736e-15 28.1,-7.10542736e-15 28.4,-7.10542736e-15 L35,-7.10542736e-15 L42.7,-7.10542736e-15 C43,-7.10542736e-15 43.4,0.1 43.7,0.2 C46.7,1 49.6,1.9 52.6,2.7 C52.7,2.7 52.8,2.6 52.9,2.6 C53.2,2.5 53.5,2.4 53.9,2.4 C57.5,1.7 61,0.9 64.6,0.2 L64.9,0.2 C66.6,1 68.2,1.9 69.9,2.7 C70,2.7 70,2.8 70,2.9 C70,5.2 69.9,7.5 69.9,9.8 C69.9,9.9 69.9,10 69.8,10 C68.9,11.2 68,12.4 67.1,13.5 C66.7,14 66.4,14.5 66,15 C65.8,15.2 65.6,15.4 65.4,15.5 C64.5,16.1 63.6,16.8 62.7,17.4 C62.7,17.4 62.6,17.4 62.6,17.5 C62.8,17.8 63,18.1 63.1,18.4 C64.4,20.5 65.6,22.6 66.9,24.8 C66.9,24.9 67,24.9 67,25 C67.2,25.2 67.2,25.5 67.1,25.7 C66.8,26.4 66.5,27.2 66.2,28 C65,31 63.8,33.9 62.6,36.9 C61.8,39 60.9,41.1 60.1,43.2 C60,43.3 60,43.4 59.8,43.5 C57.1,44.4 54.5,45.2 51.8,46.1 C50.1,46.7 48.4,47.2 46.7,47.8 C46.6,47.8 46.5,47.9 46.5,48 C46.3,49.3 46.1,50.5 45.9,51.8 C45.8,52.6 45.7,53.3 45.6,54.1 C45.6,54.4 45.6,54.4 45.3,54.4 C43.7,54.4 42.2,54.3 40.6,54.3 C39,54.3 37.4,54.2 35.7,54.2 C33.7,54.2 31.8,54.3 29.8,54.3 C28.4,54.3 27,54.3 25.6,54.4 C25.4,54.4 25.3,54.4 25.3,54.2 C25.1,52.7 24.8,51.1 24.6,49.6 C24.5,49.1 24.4,48.5 24.3,48 L24.2,47.9 C23,47.5 21.8,47.1 20.6,46.7 C18.8,46.1 17,45.5 15.2,45 C13.8,44.6 12.5,44.1 11.1,43.7 C10.9,43.6 10.8,43.5 10.7,43.4 C9.5,40.5 8.4,37.6 7.2,34.6 C6.4,32.6 5.6,30.5 4.8,28.5 C4.4,27.6 4.1,26.7 3.7,25.7 L3.7,25.4 L8.2,17.9 C8.1,17.9 8.1,17.9 8.2,17.8 L8.2,17.8 Z M26.6,48 C26.7,48.4 26.7,48.8 26.8,49.2 C27,50.1 27.1,51 27.3,52 C27.3,52.2 27.4,52.2 27.6,52.2 L36.4,52.2 L42.9,52.2 C43.3,52.2 43.3,52.2 43.3,51.8 C43.5,50.5 43.7,49.2 43.9,48 C41,45.8 38.2,43.6 35.3,41.4 C32.3,43.6 29.5,45.8 26.6,48 L26.6,48 Z M33.1,2.8 L33,2.8 L27.5,2.8 L27.2,2.8 C25.7,3.2 24.2,3.7 22.7,4.1 C21.6,4.4 20.6,4.7 19.5,5 C19.4,5 19.3,5.1 19.4,5.2 C19.5,5.5 19.5,5.9 19.6,6.2 C20,8.7 20.5,11.3 20.9,13.8 C21.3,16.2 21.7,18.7 22.1,21.1 C22.1,21.3 22.2,21.6 22.2,21.8 L22.2,21.8 C25.9,15.5 29.5,9.2 33.1,2.8 L33.1,2.8 Z M48.2,21.9 L48.2,21.9 C48.3,21.7 48.3,21.5 48.3,21.3 C48.6,19.7 48.8,18.1 49.1,16.5 C49.3,15 49.6,13.6 49.8,12.1 C50.2,9.8 50.6,7.6 50.9,5.3 C50.9,5.1 50.9,5.1 50.7,5 C48.3,4.3 46,3.6 43.6,2.9 C43.3,2.8 43.1,2.7 42.8,2.7 L37.3,2.7 L37.2,2.7 C41,9.2 44.6,15.5 48.2,21.9 L48.2,21.9 Z M61.1,15.8 C61.2,15.8 61.2,15.8 61.2,15.7 C62.2,15 63.2,14.3 64.2,13.6 C64.4,13.5 64.7,13.3 64.8,13.1 C65.6,12 66.5,10.9 67.3,9.8 C67.4,9.7 67.4,9.6 67.4,9.5 C67.4,7.8 67.5,6.2 67.5,4.5 C67.5,4.4 67.5,4.3 67.4,4.3 C66.6,3.9 65.7,3.4 64.9,2.9 C64.8,2.9 64.7,2.8 64.6,2.9 C64,3 63.3,3.2 62.7,3.3 C60.2,3.8 57.7,4.3 55.2,4.8 C55,4.8 54.8,4.9 54.6,4.9 C56.8,8.5 58.9,12.1 61.1,15.8 L61.1,15.8 Z M9.4,15.8 C11.6,12.2 13.7,8.6 15.9,4.9 C15.7,4.9 15.4,4.8 15.2,4.8 C13.3,4.4 11.5,4.1 9.6,3.7 C8.4,3.5 7.1,3.2 5.9,3 L5.7,3 C4.8,3.5 4,3.9 3.1,4.4 C3,4.4 3,4.5 3,4.6 C3,6.3 3.1,8 3.1,9.7 C3.1,9.8 3.1,9.9 3.2,10 C4,11 4.8,12.1 5.6,13.1 C5.7,13.2 5.8,13.4 6,13.5 C6.8,14.1 7.6,14.6 8.4,15.1 C8.6,15.2 9,15.5 9.4,15.8 L9.4,15.8 Z M26.1,45.3 C26.2,45.3 26.2,45.2 26.2,45.2 C27.9,43.9 29.6,42.6 31.3,41.3 C32.1,40.7 33,40 33.8,39.4 C33.9,39.3 33.9,39.3 33.9,39.2 L33.9,35.9 C33.9,35.8 33.9,35.7 33.8,35.7 C32.4,34.7 30.9,33.7 29.5,32.7 C27.5,31.4 25.6,30 23.6,28.7 C23.5,28.6 23.3,28.5 23.1,28.4 C24.2,33.9 25.2,39.6 26.1,45.3 L26.1,45.3 Z M47.2,28.3 C47.1,28.3 47.1,28.3 47.2,28.3 C46.5,28.7 45.9,29.1 45.3,29.5 C43.7,30.6 42.1,31.7 40.5,32.8 C39.2,33.7 37.9,34.6 36.6,35.5 C36.5,35.6 36.5,35.7 36.5,35.8 L36.5,39.1 C36.5,39.2 36.5,39.3 36.6,39.4 C37,39.7 37.4,40 37.8,40.3 C39.8,41.8 41.7,43.3 43.7,44.8 C43.9,45 44.2,45.1 44.4,45.3 C45.3,39.6 46.2,33.9 47.2,28.3 L47.2,28.3 Z M36.6,6.3 C36.6,6.3 36.5,6.3 36.6,6.3 C36.5,6.4 36.5,6.4 36.6,6.3 C36.5,8.2 36.5,10 36.5,11.8 L36.5,18.3 L36.5,24.2 C36.5,24.3 36.5,24.4 36.7,24.4 L38.3,24.4 L46.2,24.4 L47,24.4 C43.4,18.4 40,12.4 36.6,6.3 L36.6,6.3 Z M23.6,24.5 L23.7,24.5 L25.9,24.5 L33.7,24.5 C33.9,24.5 33.9,24.5 33.9,24.3 L33.9,17.5 L33.9,6.5 L33.9,6.4 C30.5,12.4 27,18.4 23.6,24.5 L23.6,24.5 Z M6.6,26.9 C8.3,31.3 10.1,35.7 11.8,40.2 C14.3,35.7 16.8,31.3 19.4,26.9 C15.1,26.9 10.9,26.9 6.6,26.9 L6.6,26.9 Z M51.1,26.9 C53.6,31.3 56.1,35.7 58.7,40.2 C60.4,35.8 62.2,31.4 63.9,26.9 C59.6,26.9 55.3,26.9 51.1,26.9 L51.1,26.9 Z M13.6,42.1 C17,43.2 20.4,44.3 23.8,45.5 C22.8,40 21.9,34.6 21,29.1 L21,29.1 C18.5,33.5 16,37.8 13.6,42.1 L13.6,42.1 Z M56.9,42.1 C54.4,37.8 52,33.4 49.5,29.1 L49.5,29.1 C48.6,34.5 47.7,40 46.8,45.5 C50.2,44.4 53.5,43.3 56.9,42.1 L56.9,42.1 Z M17.3,7.3 L17.3,7.3 C17.2,7.4 17.1,7.6 17,7.7 C15.2,10.8 13.3,13.9 11.5,17 C11.4,17.1 11.5,17.2 11.6,17.2 C12.4,17.7 13.2,18.3 14,18.8 C16,20.1 17.9,21.5 19.9,22.8 C19.9,22.8 20,22.8 20,22.9 C19.1,17.7 18.2,12.5 17.3,7.3 L17.3,7.3 Z M53.2,7.3 L53.2,7.3 C52.3,12.5 51.4,17.7 50.5,23 C50.6,23 50.6,22.9 50.6,22.9 C51.7,22.1 52.9,21.3 54,20.5 C55.6,19.4 57.2,18.3 58.9,17.2 C59,17.1 59,17.1 58.9,17 C58.1,15.6 57.3,14.3 56.5,12.9 C55.4,11.1 54.4,9.3 53.3,7.6 C53.3,7.5 53.3,7.4 53.2,7.3 L53.2,7.3 Z M10.2,19.2 C9.1,21 8.1,22.7 7.1,24.5 L17.8,24.5 L17.8,24.5 C15.2,22.7 12.7,21 10.2,19.2 L10.2,19.2 Z M60.3,19.2 C57.7,21 55.2,22.7 52.7,24.4 C52.7,24.4 52.7,24.4 52.7,24.5 L63.4,24.5 C62.4,22.7 61.4,21 60.3,19.2 L60.3,19.2 Z M34,32.7 L34,32.6 L34,27.3 C34,26.9 34,26.9 33.6,26.9 L25.8,26.9 L25.6,26.9 L25.6,26.9 C28.5,28.8 31.2,30.7 34,32.7 L34,32.7 Z M36.4,32.7 C39.2,30.8 42,28.9 44.8,26.9 L44.6,26.9 L36.6,26.9 C36.4,26.9 36.4,26.9 36.4,27.1 L36.4,32.2 C36.4,32.3 36.4,32.5 36.4,32.7 L36.4,32.7 Z" id="Shape"></path>
                <g id="Group" transform="translate(96.000000, 9.000000)">
                    <path d="M102.3,1.2 L105.6,1.2 L110,1.2 C110.7,1.2 111.1,1.4 111.5,2 C116.1,8.3 120.8,14.6 125.5,20.9 C125.7,21.2 125.9,21.4 126.3,21.9 L126.3,1.4 L135,1.4 L135,35 L131,35 L127.1,35 C126.5,35 126.1,34.8 125.8,34.3 C121.1,27.9 116.4,21.5 111.6,15.2 C111.4,15 111.2,14.7 110.9,14.3 L110.9,34.9 L102.3,34.9 C102.3,23.6 102.3,12.4 102.3,1.2 L102.3,1.2 Z" id="Shape"></path>
                    <path d="M56,34.8 L47.4,34.8 L47.4,33.8 L47.4,21.9 C47.4,21.2 47.2,21 46.5,21 L36.1,21 C35.5,21 35.3,21.2 35.3,21.8 L35.3,33.8 L35.3,34.8 L26.7,34.8 L26.7,1.3 L35.3,1.3 L35.3,14.2 L47.3,14.2 L47.3,1.3 L55.9,1.3 C56,12.4 56,23.6 56,34.8 L56,34.8 Z" id="Shape"></path>
                    <path d="M172.5,34.8 L164,34.8 C163.8,34.8 163.5,34.5 163.4,34.3 C162.8,32.7 162.2,31.2 161.7,29.6 C161.5,29.2 161.3,29 160.8,29 L150.5,29 C150,29 149.7,29.2 149.6,29.6 C149,31.2 148.4,32.7 147.8,34.3 C147.7,34.5 147.4,34.8 147.2,34.8 L138.8,34.8 C138.9,34.5 139,34.3 139,34 C143,23.3 147,12.5 150.9,1.8 C151.1,1.3 151.3,1.2 151.8,1.2 L159.7,1.2 C160.2,1.2 160.4,1.3 160.5,1.8 C164.4,12.6 168.3,23.4 172.3,34.3 C172.4,34.4 172.5,34.6 172.5,34.8 L172.5,34.8 Z M159.2,22.3 C158,18.7 156.9,15.2 155.7,11.5 C154.5,15.2 153.4,18.7 152.2,22.3 L159.2,22.3 L159.2,22.3 Z" id="Shape"></path>
                    <path d="M292,3.3 C290.8,5.7 289.7,7.9 288.6,10.2 C287.2,9.1 285.6,8.3 283.9,8.1 C282.6,7.9 281.3,8 280.2,8.7 C278.5,9.7 278.5,11.9 280.2,12.7 C281.8,13.5 283.6,13.9 285.2,14.6 C286.8,15.2 288.4,15.9 289.9,16.7 C292,17.9 293,19.9 293.2,22.3 C293.4,24.5 293.2,26.6 292.5,28.7 C291.4,31.9 288.9,33.8 285.9,34.8 C280.5,36.7 275.4,35.7 270.5,33 C270,32.7 269.6,32.4 269.1,32.1 C269,32 268.9,32 268.8,31.9 C270,29.6 271.2,27.3 272.5,25 C273.8,25.8 274.9,26.6 276.2,27.3 C277.9,28.2 279.7,28.7 281.5,28.2 C282.9,27.9 284.1,27.2 284.4,25.6 C284.6,24.4 284.3,23.4 283.3,22.9 C282.1,22.3 280.8,21.8 279.5,21.4 C278.2,20.9 276.8,20.5 275.5,20 C272.2,18.8 270.4,16.4 270.2,12.8 C269.8,6.5 273.2,2.2 278.6,1 C281.5,0.3 284.5,0.6 287.3,1.5 C288.9,1.9 290.4,2.6 292,3.3 L292,3.3 Z" id="Shape"></path>
                    <path d="M225.6,21.6 C226.7,18.7 227.8,15.9 228.9,13.2 C230.4,9.4 231.8,5.7 233.3,1.9 C233.4,1.7 233.7,1.3 233.9,1.3 L242.7,1.3 C242.2,2.6 241.7,3.8 241.2,5 C237.2,14.7 233.2,24.4 229.3,34.1 C229.1,34.7 228.8,34.9 228.1,34.9 C226.4,34.8 224.7,34.9 222.9,34.9 C222.5,34.9 222.3,34.8 222.1,34.4 C217.7,23.6 213.3,12.7 208.9,1.9 C208.8,1.8 208.8,1.6 208.7,1.4 L209.4,1.4 L217,1.4 C217.6,1.4 217.9,1.6 218.1,2.1 C220.5,8.3 222.8,14.5 225.2,20.7 C225.3,20.8 225.4,21.1 225.6,21.6 L225.6,21.6 Z" id="Shape"></path>
                    <path d="M71.3,27.4 L81.3,27.4 L81.3,34.8 L62.7,34.8 L62.7,1.3 L81.3,1.3 L81.3,8.6 L71.3,8.6 L71.3,14.2 L80.8,14.2 L80.8,15.4 L80.8,20.6 C80.8,21.4 80.7,21.7 79.8,21.6 C77.3,21.5 74.7,21.6 72.2,21.6 L71.3,21.6 L71.3,27.4 L71.3,27.4 Z" id="Shape"></path>
                    <path d="M245.8,34.8 L245.8,1.3 L264.4,1.3 L264.4,8.6 L254.4,8.6 L254.4,14.2 L263.8,14.2 L263.8,21.6 L254.4,21.6 L254.4,27.4 L264.4,27.4 L264.4,34.8 L245.8,34.8 L245.8,34.8 Z" id="Shape"></path>
                    <path d="M7.6,8.6 L0.7,8.6 L0.7,1.2 L23.2,1.2 L23.2,8.5 L16.3,8.5 L16.3,34.7 L7.7,34.7 C7.6,26.1 7.6,17.4 7.6,8.6 L7.6,8.6 Z" id="Shape"></path>
                    <path d="M178.2,8.6 L171.3,8.6 L171.3,1.2 L193.8,1.2 L193.8,8.5 L186.9,8.5 L186.9,34.7 L178.3,34.7 C178.2,26.1 178.2,17.4 178.2,8.6 L178.2,8.6 Z" id="Shape"></path>
                    <path d="M197.4,1.2 L205.9,1.2 L205.9,34.7 L197.4,34.7 L197.4,1.2 L197.4,1.2 Z" id="Shape"></path>
                </g>
            </g>
        </g>
    </g>
</svg>